<svg width="24" height="24" viewBox="0 0 24 24" fill="none" xmlns="http://www.w3.org/2000/svg">
<g clip-path="url(#clip0_760_9235)">
<path d="M20.9144 8.1816C20.7752 8.2896 18.3176 9.6744 18.3176 12.7536C18.3176 16.3152 21.4448 17.5752 21.5384 17.6064C21.524 17.6832 21.0416 19.332 19.8896 21.012C18.8624 22.4904 17.7896 23.9664 16.1576 23.9664C14.5256 23.9664 14.1056 23.0184 12.2216 23.0184C10.3856 23.0184 9.7328 23.9976 8.24 23.9976C6.7472 23.9976 5.7056 22.6296 4.508 20.9496C3.1208 18.9768 2 15.912 2 13.0032C2 8.3376 5.0336 5.8632 8.0192 5.8632C9.6056 5.8632 10.928 6.9048 11.924 6.9048C12.872 6.9048 14.3504 5.8008 16.1552 5.8008C16.8392 5.8008 19.2968 5.8632 20.9144 8.1816ZM15.2984 3.8256C16.0448 2.94 16.5728 1.7112 16.5728 0.4824C16.5728 0.312 16.5584 0.1392 16.5272 0C15.3128 0.0456 13.868 0.8088 12.9968 1.8192C12.3128 2.5968 11.6744 3.8256 11.6744 5.0712C11.6744 5.2584 11.7056 5.4456 11.72 5.5056C11.7968 5.52 11.9216 5.5368 12.0464 5.5368C13.136 5.5368 14.5064 4.8072 15.2984 3.8256Z" fill="#141718"/>
</g>
<defs>
<clipPath id="clip0_760_9235">
<rect width="19.536" height="24" fill="white" transform="translate(2)"/>
</clipPath>
</defs>
</svg>
