<svg width="532" height="39" viewBox="0 0 532 39" fill="none" xmlns="http://www.w3.org/2000/svg">
<g clip-path="url(#clip0_623_27880)">
<rect y="19" width="2" height="1" rx="0.5" fill="#0084FF"/>
<rect x="4" y="19" width="2" height="1" rx="0.5" fill="#0084FF"/>
<rect x="8" y="19" width="2" height="1" rx="0.5" fill="#0084FF"/>
<rect x="12" y="19" width="2" height="1" rx="0.5" fill="#0084FF"/>
<rect x="16" y="19" width="2" height="1" rx="0.5" fill="#0084FF"/>
<rect x="20" y="19" width="2" height="1" rx="0.5" fill="#0084FF"/>
<rect x="24" y="19" width="2" height="1" rx="0.5" fill="#0084FF"/>
<rect x="28" y="19" width="2" height="1" rx="0.5" fill="#0084FF"/>
<rect x="32" y="19" width="2" height="1" rx="0.5" fill="#0084FF"/>
<rect x="36" y="19" width="2" height="1" rx="0.5" fill="#0084FF"/>
<rect x="40" y="19" width="2" height="1" rx="0.5" fill="#0084FF"/>
<rect x="44" y="19" width="2" height="1" rx="0.5" fill="#0084FF"/>
<rect x="48" y="19" width="2" height="1" rx="0.5" fill="#0084FF"/>
<rect x="52" y="19" width="2" height="1" rx="0.5" fill="#0084FF"/>
<rect x="56" y="19" width="2" height="1" rx="0.5" fill="#0084FF"/>
<rect x="60" y="19" width="2" height="1" rx="0.5" fill="#0084FF"/>
<rect x="64" y="19" width="2" height="1" rx="0.5" fill="#0084FF"/>
<rect x="68" y="17.5" width="2" height="4" rx="1" fill="#0084FF"/>
<rect x="72" y="17.5" width="2" height="4" rx="1" fill="#0084FF"/>
<rect x="76" y="17.5" width="2" height="4" rx="1" fill="#0084FF"/>
<rect x="80" y="17.5" width="2" height="4" rx="1" fill="#0084FF"/>
<rect x="84" y="17.5" width="2" height="4" rx="1" fill="#0084FF"/>
<rect x="88" y="17.5" width="2" height="4" rx="1" fill="#0084FF"/>
<rect x="92" y="17.5" width="2" height="4" rx="1" fill="#0084FF"/>
<rect x="96" y="17.5" width="2" height="4" rx="1" fill="#0084FF"/>
<rect x="100" y="17.5" width="2" height="4" rx="1" fill="#0084FF"/>
<rect x="104" y="17.5" width="2" height="4" rx="1" fill="#0084FF"/>
<rect x="108" y="17.5" width="2" height="4" rx="1" fill="#0084FF"/>
<rect x="112" y="17.5" width="2" height="4" rx="1" fill="#0084FF"/>
<rect x="116" y="17.5" width="2" height="4" rx="1" fill="#0084FF"/>
<rect x="120" y="9.5" width="2" height="20" rx="1" fill="#0084FF"/>
<rect x="124" y="9.5" width="2" height="20" rx="1" fill="#0084FF"/>
<rect x="128" y="9.5" width="2" height="20" rx="1" fill="#0084FF"/>
<rect x="132" y="6.5" width="2" height="26" rx="1" fill="#0084FF"/>
<rect x="136" y="6.5" width="2" height="26" rx="1" fill="#0084FF"/>
<rect x="140" y="5" width="2" height="29" rx="1" fill="#0084FF"/>
<rect x="144" y="6.5" width="2" height="26" rx="1" fill="#0084FF"/>
<rect x="148" y="9.5" width="2" height="20" rx="1" fill="#0084FF"/>
<rect x="152" y="9.5" width="2" height="20" rx="1" fill="#0084FF"/>
<rect x="156" y="9.5" width="2" height="20" rx="1" fill="#0084FF"/>
<rect x="160" y="7.5" width="2" height="24" rx="1" fill="#0084FF"/>
<rect x="164" y="14.5" width="2" height="10" rx="1" fill="#0084FF"/>
<rect x="168" y="14.5" width="2" height="10" rx="1" fill="#0084FF"/>
<rect x="172" y="14.5" width="2" height="10" rx="1" fill="#0084FF"/>
<rect x="176" y="14.5" width="2" height="10" rx="1" fill="#0084FF"/>
<rect x="180" y="14.5" width="2" height="10" rx="1" fill="#0084FF"/>
<rect x="184" y="14.5" width="2" height="10" rx="1" fill="#0084FF"/>
<rect x="188" y="14.5" width="2" height="10" rx="1" fill="#0084FF"/>
<rect x="192" y="14.5" width="2" height="10" rx="1" fill="#0084FF"/>
<rect x="196" y="17.5" width="2" height="4" rx="1" fill="#0084FF"/>
<rect x="200" y="17.5" width="2" height="4" rx="1" fill="#0084FF"/>
<rect x="204" y="17.5" width="2" height="4" rx="1" fill="#0084FF"/>
<rect x="208" y="17.5" width="2" height="4" rx="1" fill="#6C7275" fill-opacity="0.5"/>
<rect x="212" y="17.5" width="2" height="4" rx="1" fill="#6C7275" fill-opacity="0.5"/>
<rect x="216" y="17.5" width="2" height="4" rx="1" fill="#6C7275" fill-opacity="0.5"/>
<rect x="220" y="14.5" width="2" height="10" rx="1" fill="#6C7275" fill-opacity="0.5"/>
<rect x="224" y="14.5" width="2" height="10" rx="1" fill="#6C7275" fill-opacity="0.5"/>
<rect x="228" y="11.5" width="2" height="16" rx="1" fill="#6C7275" fill-opacity="0.5"/>
<rect x="232" y="9.5" width="2" height="20" rx="1" fill="#6C7275" fill-opacity="0.5"/>
<rect x="236" y="9.5" width="2" height="20" rx="1" fill="#6C7275" fill-opacity="0.5"/>
<rect x="240" y="9.5" width="2" height="20" rx="1" fill="#6C7275" fill-opacity="0.5"/>
<rect x="244" y="7.5" width="2" height="24" rx="1" fill="#6C7275" fill-opacity="0.5"/>
<rect x="248" y="3.5" width="2" height="32" rx="1" fill="#6C7275" fill-opacity="0.5"/>
<rect x="252" y="15" width="2" height="9" rx="1" fill="#6C7275" fill-opacity="0.5"/>
<rect x="256" y="10.5" width="2" height="18" rx="1" fill="#6C7275" fill-opacity="0.5"/>
<rect x="260" y="13.5" width="2" height="12" rx="1" fill="#6C7275" fill-opacity="0.5"/>
<rect x="264" y="10.5" width="2" height="18" rx="1" fill="#6C7275" fill-opacity="0.5"/>
<rect x="268" y="3.5" width="2" height="32" rx="1" fill="#6C7275" fill-opacity="0.5"/>
<rect x="272" y="9" width="2" height="21" rx="1" fill="#6C7275" fill-opacity="0.5"/>
<rect x="276" y="3.5" width="2" height="32" rx="1" fill="#6C7275" fill-opacity="0.5"/>
<rect x="280" width="2" height="39" rx="1" fill="#6C7275" fill-opacity="0.5"/>
<rect x="284" y="3.5" width="2" height="32" rx="1" fill="#6C7275" fill-opacity="0.5"/>
<rect x="288" y="3.5" width="2" height="32" rx="1" fill="#6C7275" fill-opacity="0.5"/>
<rect x="292" y="3.5" width="2" height="32" rx="1" fill="#6C7275" fill-opacity="0.5"/>
<rect x="296" y="5.5" width="2" height="28" rx="1" fill="#6C7275" fill-opacity="0.5"/>
<rect x="300" y="3" width="2" height="33" rx="1" fill="#6C7275" fill-opacity="0.5"/>
<rect x="304" y="3" width="2" height="33" rx="1" fill="#6C7275" fill-opacity="0.5"/>
<rect x="308" y="11.5" width="2" height="16" rx="1" fill="#6C7275" fill-opacity="0.5"/>
<rect x="312" y="7.5" width="2" height="24" rx="1" fill="#6C7275" fill-opacity="0.5"/>
<rect x="316" y="11.5" width="2" height="16" rx="1" fill="#6C7275" fill-opacity="0.5"/>
<rect x="320" y="13" width="2" height="13" rx="1" fill="#6C7275" fill-opacity="0.5"/>
<rect x="324" y="5.5" width="2" height="28" rx="1" fill="#6C7275" fill-opacity="0.5"/>
<rect x="328" y="5.5" width="2" height="28" rx="1" fill="#6C7275" fill-opacity="0.5"/>
<rect x="332" y="9.5" width="2" height="20" rx="1" fill="#6C7275" fill-opacity="0.5"/>
<rect x="336" y="9.5" width="2" height="20" rx="1" fill="#6C7275" fill-opacity="0.5"/>
<rect x="340" y="6.5" width="2" height="26" rx="1" fill="#6C7275" fill-opacity="0.5"/>
<rect x="344" y="9.5" width="2" height="20" rx="1" fill="#6C7275" fill-opacity="0.5"/>
<rect x="348" y="9.5" width="2" height="20" rx="1" fill="#6C7275" fill-opacity="0.5"/>
<path d="M352 7.5C352 6.94772 352.448 6.5 353 6.5C353.552 6.5 354 6.94772 354 7.5V31.5C354 32.0523 353.552 32.5 353 32.5C352.448 32.5 352 32.0523 352 31.5V7.5Z" fill="#6C7275" fill-opacity="0.5"/>
<rect x="356" y="9" width="2" height="21" rx="1" fill="#6C7275" fill-opacity="0.5"/>
<rect x="360" y="3.5" width="2" height="32" rx="1" fill="#6C7275" fill-opacity="0.5"/>
<rect x="364" y="9.5" width="2" height="20" rx="1" fill="#6C7275" fill-opacity="0.5"/>
<rect x="368" y="9.5" width="2" height="20" rx="1" fill="#6C7275" fill-opacity="0.5"/>
<rect x="372" y="9.5" width="2" height="20" rx="1" fill="#6C7275" fill-opacity="0.5"/>
<rect x="376" y="9.5" width="2" height="20" rx="1" fill="#6C7275" fill-opacity="0.5"/>
<rect x="380" y="11.5" width="2" height="16" rx="1" fill="#6C7275" fill-opacity="0.5"/>
<rect x="384" y="11.5" width="2" height="16" rx="1" fill="#6C7275" fill-opacity="0.5"/>
<rect x="388" y="14.5" width="2" height="10" rx="1" fill="#6C7275" fill-opacity="0.5"/>
<rect x="392" y="14.5" width="2" height="10" rx="1" fill="#6C7275" fill-opacity="0.5"/>
<rect x="396" y="14.5" width="2" height="10" rx="1" fill="#6C7275" fill-opacity="0.5"/>
<rect x="400" y="10" width="2" height="19" rx="1" fill="#6C7275" fill-opacity="0.5"/>
<rect x="404" y="14.5" width="2" height="10" rx="1" fill="#6C7275" fill-opacity="0.5"/>
<rect x="408" y="14.5" width="2" height="10" rx="1" fill="#6C7275" fill-opacity="0.5"/>
<rect x="412" y="14.5" width="2" height="10" rx="1" fill="#6C7275" fill-opacity="0.5"/>
<rect x="416" y="11.5" width="2" height="16" rx="1" fill="#6C7275" fill-opacity="0.5"/>
<rect x="420" y="17.5" width="2" height="4" rx="1" fill="#6C7275" fill-opacity="0.5"/>
<rect x="424" y="17.5" width="2" height="4" rx="1" fill="#6C7275" fill-opacity="0.5"/>
<rect x="428" y="17.5" width="2" height="4" rx="1" fill="#6C7275" fill-opacity="0.5"/>
<rect x="432" y="17.5" width="2" height="4" rx="1" fill="#6C7275" fill-opacity="0.5"/>
<rect x="436" y="17.5" width="2" height="4" rx="1" fill="#6C7275" fill-opacity="0.5"/>
<rect x="440" y="17.5" width="2" height="4" rx="1" fill="#6C7275" fill-opacity="0.5"/>
<rect x="444" y="17.5" width="2" height="4" rx="1" fill="#6C7275" fill-opacity="0.5"/>
<rect x="448" y="17.5" width="2" height="4" rx="1" fill="#6C7275" fill-opacity="0.5"/>
<rect x="452" y="17.5" width="2" height="4" rx="1" fill="#6C7275" fill-opacity="0.5"/>
<rect x="456" y="17.5" width="2" height="4" rx="1" fill="#6C7275" fill-opacity="0.5"/>
<rect x="460" y="17.5" width="2" height="4" rx="1" fill="#6C7275" fill-opacity="0.5"/>
<rect x="464" y="17.5" width="2" height="4" rx="1" fill="#6C7275" fill-opacity="0.5"/>
<rect x="468" y="17.5" width="2" height="4" rx="1" fill="#6C7275" fill-opacity="0.5"/>
<rect x="472" y="17.5" width="2" height="4" rx="1" fill="#6C7275" fill-opacity="0.5"/>
<rect x="476" y="17.5" width="2" height="4" rx="1" fill="#6C7275" fill-opacity="0.5"/>
<rect x="480" y="17.5" width="2" height="4" rx="1" fill="#6C7275" fill-opacity="0.5"/>
<rect x="484" y="17.5" width="2" height="4" rx="1" fill="#6C7275" fill-opacity="0.5"/>
<rect x="488" y="17.5" width="2" height="4" rx="1" fill="#6C7275" fill-opacity="0.5"/>
<rect x="492" y="17.5" width="2" height="4" rx="1" fill="#6C7275" fill-opacity="0.5"/>
<rect x="496" y="17.5" width="2" height="4" rx="1" fill="#6C7275" fill-opacity="0.5"/>
<rect x="500" y="17.5" width="2" height="4" rx="1" fill="#6C7275" fill-opacity="0.5"/>
<rect x="504" y="18.5" width="2" height="2" rx="1" fill="#6C7275" fill-opacity="0.5"/>
<rect x="508" y="18.5" width="2" height="2" rx="1" fill="#6C7275" fill-opacity="0.5"/>
<rect x="512" y="18.5" width="2" height="2" rx="1" fill="#6C7275" fill-opacity="0.5"/>
<rect x="516" y="18.5" width="2" height="2" rx="1" fill="#6C7275" fill-opacity="0.5"/>
<rect x="520" y="18.5" width="2" height="2" rx="1" fill="#6C7275" fill-opacity="0.5"/>
<rect x="524" y="18.5" width="2" height="2" rx="1" fill="#6C7275" fill-opacity="0.5"/>
<rect x="528" y="18.5" width="2" height="2" rx="1" fill="#6C7275" fill-opacity="0.5"/>
</g>
<defs>
<clipPath id="clip0_623_27880">
<rect width="532" height="39" rx="2" fill="white"/>
</clipPath>
</defs>
</svg>
