<svg width="614" height="40" viewBox="0 0 614 40" fill="none" xmlns="http://www.w3.org/2000/svg">
<rect y="19.5" width="2" height="1" rx="0.5" fill="#343839"/>
<rect x="4" y="19.5" width="2" height="1" rx="0.5" fill="#343839"/>
<rect x="8" y="19.5" width="2" height="1" rx="0.5" fill="#343839"/>
<rect x="12" y="19.5" width="2" height="1" rx="0.5" fill="#343839"/>
<rect x="16" y="19.5" width="2" height="1" rx="0.5" fill="#343839"/>
<rect x="20" y="19.5" width="2" height="1" rx="0.5" fill="#343839"/>
<rect x="24" y="19.5" width="2" height="1" rx="0.5" fill="#343839"/>
<rect x="28" y="19.5" width="2" height="1" rx="0.5" fill="#343839"/>
<rect x="32" y="19.5" width="2" height="1" rx="0.5" fill="#343839"/>
<rect x="36" y="19.5" width="2" height="1" rx="0.5" fill="#343839"/>
<rect x="40" y="19.5" width="2" height="1" rx="0.5" fill="#343839"/>
<rect x="44" y="19.5" width="2" height="1" rx="0.5" fill="#343839"/>
<rect x="48" y="19.5" width="2" height="1" rx="0.5" fill="#343839"/>
<rect x="52" y="19.5" width="2" height="1" rx="0.5" fill="#343839"/>
<rect x="56" y="19.5" width="2" height="1" rx="0.5" fill="#343839"/>
<rect x="60" y="19.5" width="2" height="1" rx="0.5" fill="#343839"/>
<rect x="64" y="19.5" width="2" height="1" rx="0.5" fill="#343839"/>
<rect x="68" y="18" width="2" height="4" rx="1" fill="#343839"/>
<rect x="72" y="18" width="2" height="4" rx="1" fill="#343839"/>
<rect x="76" y="18" width="2" height="4" rx="1" fill="#343839"/>
<rect x="80" y="18" width="2" height="4" rx="1" fill="#343839"/>
<rect x="84" y="18" width="2" height="4" rx="1" fill="#343839"/>
<rect x="88" y="18" width="2" height="4" rx="1" fill="#343839"/>
<rect x="92" y="18" width="2" height="4" rx="1" fill="#343839"/>
<rect x="96" y="18" width="2" height="4" rx="1" fill="#343839"/>
<rect x="100" y="18" width="2" height="4" rx="1" fill="#343839"/>
<rect x="104" y="18" width="2" height="4" rx="1" fill="#343839"/>
<rect x="108" y="18" width="2" height="4" rx="1" fill="#343839"/>
<rect x="112" y="18" width="2" height="4" rx="1" fill="#343839"/>
<rect x="116" y="18" width="2" height="4" rx="1" fill="#343839"/>
<rect x="120" y="10" width="2" height="20" rx="1" fill="#343839"/>
<rect x="124" y="10" width="2" height="20" rx="1" fill="#343839"/>
<rect x="128" y="10" width="2" height="20" rx="1" fill="#343839"/>
<rect x="132" y="7" width="2" height="26" rx="1" fill="#343839"/>
<rect x="136" y="7" width="2" height="26" rx="1" fill="#343839"/>
<rect x="140" y="5.5" width="2" height="29" rx="1" fill="#343839"/>
<rect x="144" y="7" width="2" height="26" rx="1" fill="#343839"/>
<rect x="148" y="10" width="2" height="20" rx="1" fill="#343839"/>
<rect x="152" y="10" width="2" height="20" rx="1" fill="#343839"/>
<rect x="156" y="10" width="2" height="20" rx="1" fill="#343839"/>
<rect x="160" y="8" width="2" height="24" rx="1" fill="#343839"/>
<rect x="164" y="15" width="2" height="10" rx="1" fill="#343839"/>
<rect x="168" y="15" width="2" height="10" rx="1" fill="#343839"/>
<rect x="172" y="15" width="2" height="10" rx="1" fill="#343839"/>
<rect x="176" y="15" width="2" height="10" rx="1" fill="#343839"/>
<rect x="180" y="15" width="2" height="10" rx="1" fill="#343839"/>
<rect x="184" y="15" width="2" height="10" rx="1" fill="#343839"/>
<rect x="188" y="15" width="2" height="10" rx="1" fill="#343839"/>
<rect x="192" y="15" width="2" height="10" rx="1" fill="#343839"/>
<rect x="196" y="18" width="2" height="4" rx="1" fill="#343839"/>
<rect x="200" y="18" width="2" height="4" rx="1" fill="#343839"/>
<rect x="204" y="18" width="2" height="4" rx="1" fill="#343839"/>
<rect x="208" y="18" width="2" height="4" rx="1" fill="#343839"/>
<rect x="212" y="18" width="2" height="4" rx="1" fill="#343839"/>
<rect x="216" y="18" width="2" height="4" rx="1" fill="#343839"/>
<rect x="220" y="15" width="2" height="10" rx="1" fill="#343839"/>
<rect x="224" y="15" width="2" height="10" rx="1" fill="#343839"/>
<rect x="228" y="12" width="2" height="16" rx="1" fill="#343839"/>
<rect x="232" y="10" width="2" height="20" rx="1" fill="#343839"/>
<rect x="236" y="10" width="2" height="20" rx="1" fill="#343839"/>
<rect x="240" y="10" width="2" height="20" rx="1" fill="#343839"/>
<rect x="244" y="8" width="2" height="24" rx="1" fill="#343839"/>
<rect x="248" y="4" width="2" height="32" rx="1" fill="#343839"/>
<rect x="252" y="15.5" width="2" height="9" rx="1" fill="#343839"/>
<rect x="256" y="11" width="2" height="18" rx="1" fill="#343839"/>
<rect x="260" y="14" width="2" height="12" rx="1" fill="#343839"/>
<rect x="264" y="11" width="2" height="18" rx="1" fill="#343839"/>
<rect x="268" y="4" width="2" height="32" rx="1" fill="#343839"/>
<rect x="272" y="9.5" width="2" height="21" rx="1" fill="#343839"/>
<rect x="276" y="4" width="2" height="32" rx="1" fill="#343839"/>
<rect x="280" y="0.5" width="2" height="39" rx="1" fill="#343839"/>
<rect x="284" y="4" width="2" height="32" rx="1" fill="#343839"/>
<rect x="288" y="4" width="2" height="32" rx="1" fill="#343839"/>
<rect x="292" y="4" width="2" height="32" rx="1" fill="#343839"/>
<rect x="296" y="6" width="2" height="28" rx="1" fill="#343839"/>
<rect x="300" y="3.5" width="2" height="33" rx="1" fill="#343839"/>
<rect x="304" y="3.5" width="2" height="33" rx="1" fill="#343839"/>
<rect x="308" y="12" width="2" height="16" rx="1" fill="#343839"/>
<rect x="312" y="8" width="2" height="24" rx="1" fill="#343839"/>
<rect x="316" y="12" width="2" height="16" rx="1" fill="#343839"/>
<rect x="320" y="13.5" width="2" height="13" rx="1" fill="#343839"/>
<rect x="324" y="6" width="2" height="28" rx="1" fill="#343839"/>
<rect x="328" y="6" width="2" height="28" rx="1" fill="#343839"/>
<rect x="332" y="10" width="2" height="20" rx="1" fill="#343839"/>
<rect x="336" y="10" width="2" height="20" rx="1" fill="#343839"/>
<rect x="340" y="7" width="2" height="26" rx="1" fill="#343839"/>
<rect x="344" y="10" width="2" height="20" rx="1" fill="#343839"/>
<rect x="348" y="10" width="2" height="20" rx="1" fill="#343839"/>
<path d="M352 8C352 7.44772 352.448 7 353 7C353.552 7 354 7.44772 354 8V32C354 32.5523 353.552 33 353 33C352.448 33 352 32.5523 352 32V8Z" fill="#343839"/>
<rect x="356" y="9.5" width="2" height="21" rx="1" fill="#343839"/>
<rect x="360" y="4" width="2" height="32" rx="1" fill="#343839"/>
<rect x="364" y="10" width="2" height="20" rx="1" fill="#343839"/>
<rect x="368" y="10" width="2" height="20" rx="1" fill="#343839"/>
<rect x="372" y="10" width="2" height="20" rx="1" fill="#343839"/>
<rect x="376" y="10" width="2" height="20" rx="1" fill="#343839"/>
<rect x="380" y="12" width="2" height="16" rx="1" fill="#343839"/>
<rect x="384" y="12" width="2" height="16" rx="1" fill="#343839"/>
<rect x="388" y="15" width="2" height="10" rx="1" fill="#343839"/>
<rect x="392" y="15" width="2" height="10" rx="1" fill="#343839"/>
<rect x="396" y="15" width="2" height="10" rx="1" fill="#343839"/>
<rect x="400" y="10.5" width="2" height="19" rx="1" fill="#343839"/>
<rect x="404" y="15" width="2" height="10" rx="1" fill="#343839"/>
<rect x="408" y="15" width="2" height="10" rx="1" fill="#343839"/>
<rect x="412" y="15" width="2" height="10" rx="1" fill="#343839"/>
<rect x="416" y="12" width="2" height="16" rx="1" fill="#343839"/>
<rect x="420" y="18" width="2" height="4" rx="1" fill="#343839"/>
<rect x="424" y="18" width="2" height="4" rx="1" fill="#343839"/>
<rect x="428" y="18" width="2" height="4" rx="1" fill="#343839"/>
<rect x="432" y="18" width="2" height="4" rx="1" fill="#343839"/>
<rect x="436" y="18" width="2" height="4" rx="1" fill="#343839"/>
<rect x="440" y="18" width="2" height="4" rx="1" fill="#343839"/>
<rect x="444" y="18" width="2" height="4" rx="1" fill="#343839"/>
<rect x="448" y="18" width="2" height="4" rx="1" fill="#343839"/>
<rect x="452" y="18" width="2" height="4" rx="1" fill="#343839"/>
<rect x="456" y="18" width="2" height="4" rx="1" fill="#343839"/>
<rect x="460" y="18" width="2" height="4" rx="1" fill="#343839"/>
<rect x="464" y="18" width="2" height="4" rx="1" fill="#343839"/>
<rect x="468" y="18" width="2" height="4" rx="1" fill="#343839"/>
<rect x="472" y="18" width="2" height="4" rx="1" fill="#343839"/>
<rect x="476" y="18" width="2" height="4" rx="1" fill="#343839"/>
<rect x="480" y="18" width="2" height="4" rx="1" fill="#343839"/>
<rect x="484" y="18" width="2" height="4" rx="1" fill="#343839"/>
<rect x="488" y="18" width="2" height="4" rx="1" fill="#343839"/>
<rect x="492" y="18" width="2" height="4" rx="1" fill="#343839"/>
<rect x="496" y="18" width="2" height="4" rx="1" fill="#343839"/>
<rect x="500" y="18" width="2" height="4" rx="1" fill="#343839"/>
<rect x="504" y="19" width="2" height="2" rx="1" fill="#343839"/>
<rect x="508" y="19" width="2" height="2" rx="1" fill="#343839"/>
<rect x="512" y="19" width="2" height="2" rx="1" fill="#343839"/>
<rect x="516" y="19" width="2" height="2" rx="1" fill="#343839"/>
<rect x="520" y="19" width="2" height="2" rx="1" fill="#343839"/>
<rect x="524" y="19" width="2" height="2" rx="1" fill="#343839"/>
<rect x="528" y="19" width="2" height="2" rx="1" fill="#343839"/>
<rect x="532" y="19" width="2" height="2" rx="1" fill="#343839"/>
<rect x="536" y="19" width="2" height="2" rx="1" fill="#343839"/>
<rect x="540" y="19" width="2" height="2" rx="1" fill="#343839"/>
<rect x="544" y="19" width="2" height="2" rx="1" fill="#343839"/>
<rect x="548" y="19" width="2" height="2" rx="1" fill="#343839"/>
<rect x="552" y="19" width="2" height="2" rx="1" fill="#343839"/>
<rect x="556" y="19" width="2" height="2" rx="1" fill="#343839"/>
<rect x="560" y="19.5" width="2" height="1" rx="0.5" fill="#343839"/>
<rect x="564" y="19.5" width="2" height="1" rx="0.5" fill="#343839"/>
<rect x="568" y="19.5" width="2" height="1" rx="0.5" fill="#343839"/>
<rect x="572" y="19.5" width="2" height="1" rx="0.5" fill="#343839"/>
<rect x="576" y="19.5" width="2" height="1" rx="0.5" fill="#343839"/>
<rect x="580" y="19.5" width="2" height="1" rx="0.5" fill="#343839"/>
<rect x="584" y="19.5" width="2" height="1" rx="0.5" fill="#343839"/>
<rect x="588" y="19.5" width="2" height="1" rx="0.5" fill="#343839"/>
<rect x="592" y="19.5" width="2" height="1" rx="0.5" fill="#343839"/>
<rect x="596" y="19.5" width="2" height="1" rx="0.5" fill="#343839"/>
<rect x="600" y="19.5" width="2" height="1" rx="0.5" fill="#343839"/>
<rect x="604" y="19.5" width="2" height="1" rx="0.5" fill="#343839"/>
<rect x="608" y="19.5" width="2" height="1" rx="0.5" fill="#343839"/>
<rect x="612" y="19.5" width="2" height="1" rx="0.5" fill="#343839"/>
</svg>
