<svg width="80" height="20" viewBox="0 0 80 20" fill="none" xmlns="http://www.w3.org/2000/svg">
<g clip-path="url(#clip0_623_45026)">
<path fill-rule="evenodd" clip-rule="evenodd" d="M0.224609 4.58122L8.78958 0.144531L17.4469 4.58122L8.78958 9.03343L0.224609 4.58122ZM51.6436 6.73831V6.6327C51.6436 5.16913 52.5044 4.70139 53.9541 4.80701V2.13639C50.4807 1.92516 48.8346 3.6603 48.8346 6.6327V6.73831H47.264V9.40893H48.8346V17.4962H51.6436V9.40893H53.3046H53.9541H54.8752V17.4962H57.684V9.40893H59.9946V6.73831H57.684V6.6327C57.684 5.16913 58.5301 4.70139 59.9946 4.80701V2.13639C56.5212 1.92516 54.8752 3.6603 54.8752 6.6327V6.73831H53.9541H53.3046H51.6436ZM32.0111 9.66515C32.9021 8.95598 33.4457 7.94509 33.4457 6.64748C33.4457 4.12777 31.3919 2.40772 28.8095 2.40772H22.8141V17.4658H29.2927C31.9356 17.4658 34.0498 15.6853 34.0498 13.1053C34.0196 11.5511 33.2344 10.3592 32.0111 9.66515ZM28.8246 5.19903C29.7911 5.19903 30.4556 5.9082 30.4556 6.85876C30.4556 7.80931 29.7609 8.51843 28.8246 8.51843H25.8194V5.19903H28.8246ZM29.2777 14.7046H25.8194V11.1589H29.2777C30.3046 11.1589 31.0446 11.9133 31.0446 12.9242C31.0446 13.9502 30.3046 14.7046 29.2777 14.7046ZM42.8089 6.72276V12.5317C42.8089 14.4026 41.7819 15.2023 40.4077 15.2023C39.1391 15.2023 38.2481 14.4479 38.2481 12.9844V6.72276H35.4392V13.3314C35.4392 16.1981 37.2363 17.7824 39.562 17.7824C41.0269 17.7824 42.1595 17.2393 42.7937 16.2736V17.4806H45.6027V6.72276H42.8089ZM71.6385 13.2411H63.4229C63.8307 14.6594 65.0085 15.263 66.4735 15.263C67.5757 15.263 68.4518 14.8103 68.9201 14.1917L71.1851 15.4742C70.1735 16.9378 68.5424 17.7827 66.4435 17.7827C62.7885 17.7827 60.4779 15.3083 60.4779 12.0944C60.4779 8.88065 62.8035 6.4062 66.2318 6.4062C69.4485 6.4062 71.744 8.92593 71.744 12.0944C71.744 12.5169 71.6985 12.879 71.6385 13.2411ZM66.2318 8.92593C64.7218 8.92593 63.6946 9.72559 63.3774 11.0986H68.9351C68.5879 9.54454 67.4096 8.92593 66.2318 8.92593ZM75.8062 8.57909V6.7232H72.9974V17.4811H75.8062V12.336C75.8062 10.0728 77.649 9.42404 79.114 9.60509V6.51198C77.7396 6.51198 76.3651 7.11554 75.8062 8.57909ZM8.78958 16.6466L2.94631 13.4779L0.224609 14.949L8.78958 19.589L17.4469 14.949L14.6944 13.4779L8.78958 16.6466ZM2.94631 8.47787L8.78958 11.3514L14.6944 8.47787L17.4469 9.81887L8.78958 14.0334L0.224609 9.81887L2.94631 8.47787Z" fill="black"/>
</g>
<defs>
<clipPath id="clip0_623_45026">
<rect width="79.4444" height="20" fill="white"/>
</clipPath>
</defs>
</svg>
