<svg width="32" height="32" viewBox="0 0 32 32" fill="none" xmlns="http://www.w3.org/2000/svg">
<g clip-path="url(#clip0_811_87500)">
<path d="M16 23.998C20.4183 23.998 24 20.4163 24 15.998C24 11.5798 20.4183 7.99805 16 7.99805C11.5817 7.99805 8 11.5798 8 15.998C8 20.4163 11.5817 23.998 16 23.998Z" fill="white"/>
<path d="M15.9997 8.00003H29.8538C28.4499 5.56762 26.4304 3.54769 23.9982 2.14337C21.5661 0.739036 18.8071 -0.000195914 15.9986 3.89466e-08C13.1901 0.000195991 10.4312 0.739813 7.99928 2.14448C5.56732 3.54915 3.54806 5.56936 2.14453 8.00196L9.0716 20L9.0778 19.9984C8.37313 18.7833 8.00127 17.4038 7.99969 15.9991C7.99811 14.5944 8.36687 13.2142 9.0688 11.9974C9.77074 10.7807 10.781 9.77051 11.9978 9.06871C13.2147 8.36691 14.595 7.9983 15.9997 8.00003Z" fill="url(#paint0_linear_811_87500)"/>
<path d="M16.0013 22.3327C19.4991 22.3327 22.3346 19.4972 22.3346 15.9993C22.3346 12.5015 19.4991 9.66602 16.0013 9.66602C12.5035 9.66602 9.66797 12.5015 9.66797 15.9993C9.66797 19.4972 12.5035 22.3327 16.0013 22.3327Z" fill="#1A73E8"/>
<path d="M22.926 20.0018L15.999 31.9999C18.8074 32.0003 21.5665 31.2612 23.9987 29.8571C26.431 28.4529 28.4506 26.4332 29.8547 24.0009C31.2587 21.5686 31.9977 18.8095 31.9972 16.001C31.9967 13.1926 31.2567 10.4337 29.8518 8.00195H15.9978L15.9961 8.00815C17.4008 8.00544 18.7814 8.37311 19.9987 9.07407C21.216 9.77504 22.2269 10.7845 22.9297 12.0008C23.6325 13.2171 24.0021 14.5971 24.0015 16.0018C24.0009 17.4065 23.6299 18.7862 22.926 20.0018Z" fill="url(#paint1_linear_811_87500)"/>
<path d="M9.07128 20.0039L2.14421 8.00586C0.739629 10.4379 0.000104674 13.1968 1.11111e-08 16.0053C-0.000104652 18.8137 0.739214 21.5727 2.14362 24.0048C3.54802 26.4369 5.568 28.4564 8.00045 29.8602C10.4329 31.264 13.1921 32.0027 16.0005 32.0019L22.9276 20.0038L22.9231 19.9993C22.2231 21.2171 21.2144 22.2289 19.9987 22.9326C18.783 23.6363 17.4033 24.0071 15.9986 24.0075C14.5939 24.008 13.2139 23.6382 11.9977 22.9353C10.7815 22.2324 9.77212 21.2213 9.07128 20.0039Z" fill="url(#paint2_linear_811_87500)"/>
</g>
<defs>
<linearGradient id="paint0_linear_811_87500" x1="2.14453" y1="10" x2="29.8538" y2="10" gradientUnits="userSpaceOnUse">
<stop stop-color="#D93025"/>
<stop offset="1" stop-color="#EA4335"/>
</linearGradient>
<linearGradient id="paint1_linear_811_87500" x1="13.8131" y1="31.786" x2="27.6678" y2="7.78902" gradientUnits="userSpaceOnUse">
<stop stop-color="#FCC934"/>
<stop offset="1" stop-color="#FBBC04"/>
</linearGradient>
<linearGradient id="paint2_linear_811_87500" x1="17.7309" y1="31.0029" x2="3.87628" y2="7.00586" gradientUnits="userSpaceOnUse">
<stop stop-color="#1E8E3E"/>
<stop offset="1" stop-color="#34A853"/>
</linearGradient>
<clipPath id="clip0_811_87500">
<rect width="32" height="32" fill="white"/>
</clipPath>
</defs>
</svg>
