<svg width="42" height="48" viewBox="0 0 42 48" fill="none" xmlns="http://www.w3.org/2000/svg">
<path d="M36 47H6C3.23858 47 1 44.7614 1 42V6C1 3.23858 3.23858 1 6 1H26.7208C27.9828 1 29.1982 1.47726 30.123 2.33603L39.4023 10.9524C40.4211 11.8985 41 13.2261 41 14.6164V42C41 44.7614 38.7614 47 36 47Z" stroke="#D9D9D9" stroke-width="2"/>
<path d="M22.9912 14.1241C23.0462 13.6836 22.8043 13.2595 22.3971 13.0828C21.9899 12.906 21.5149 13.0188 21.2307 13.3599L12.3012 24.0752C12.1469 24.2603 11.9906 24.4478 11.8768 24.6126C11.7692 24.7684 11.5726 25.0748 11.5666 25.4774C11.5596 25.9384 11.765 26.377 12.1236 26.6667C12.4368 26.9198 12.798 26.965 12.9866 26.9821C13.186 27.0002 13.4301 27.0001 13.6711 27.0001L19.8661 27.0001L19.0066 33.876C18.9515 34.3165 19.1935 34.7406 19.6007 34.9174C20.0079 35.0941 20.4829 34.9813 20.7671 34.6402L29.6966 23.9249C29.8509 23.7398 30.0072 23.5523 30.121 23.3875C30.2286 23.2317 30.4251 22.9253 30.4312 22.5227C30.4381 22.0617 30.2327 21.6231 29.8742 21.3334C29.5609 21.0803 29.1998 21.0351 29.0112 21.018C28.8117 21 28.5676 21 28.3266 21.0001L22.1317 21.0001L22.9912 14.1241Z" fill="#8E55EA"/>
</svg>
