<svg width="48" height="48" viewBox="0 0 48 48" fill="none" xmlns="http://www.w3.org/2000/svg">
<rect width="48" height="48" fill="#0B1503"/>
<g clip-path="url(#clip0_811_87753)">
<path fill-rule="evenodd" clip-rule="evenodd" d="M17.6289 36.4794C17.6289 35.6313 18.3192 34.9395 19.1653 34.9395H21.5702C22.4163 34.9395 23.1066 35.6313 23.1066 36.4794C23.1066 37.3275 22.4163 38.0193 21.5702 38.0193H19.1653C18.3192 38.0193 17.6289 37.3275 17.6289 36.4794Z" fill="#F49000"/>
<path fill-rule="evenodd" clip-rule="evenodd" d="M24.2656 36.4794C24.2656 35.6313 24.9559 34.9395 25.8021 34.9395H28.2069C29.053 34.9395 29.7433 35.6313 29.7433 36.4794C29.7433 37.3275 29.053 38.0193 28.2069 38.0193H25.8021C24.9559 38.0193 24.2656 37.3275 24.2656 36.4794Z" fill="#F49000"/>
<path d="M7.27723 30.6536L15.9391 14.9415C16.4067 14.1157 17.5423 13.9818 18.1881 14.6737C21.3277 18.0437 21.9512 23.1546 19.68 27.3058C17.4087 31.4571 12.7549 33.6219 8.23472 32.7292C7.2995 32.5506 6.80962 31.5016 7.27723 30.6536Z" fill="#58CC02"/>
<path d="M40.0979 30.6546L31.4359 14.9425C30.9683 14.0944 29.8328 13.9604 29.1647 14.6523C26.0251 18.0224 25.4016 23.1333 27.6729 27.2845C29.9441 31.4357 34.5978 33.6007 39.1181 32.7079C40.0755 32.5516 40.5653 31.5026 40.0979 30.6546Z" fill="#58CC02"/>
<path fill-rule="evenodd" clip-rule="evenodd" d="M17.2972 8.4023C20.4146 9.71908 22.5523 10.3886 23.7102 10.3886C24.868 10.3886 26.9611 9.7414 30.0339 8.42462C32.0603 7.5542 34.4206 8.51389 35.289 10.5449C35.4894 11.0359 35.6007 11.5715 35.6007 12.1072V24.5831C35.6007 31.1894 30.2567 36.5458 23.6656 36.5458C17.0746 36.5234 11.7305 31.1894 11.7305 24.5831V12.0848C11.7305 9.87531 13.5118 8.08984 15.7385 8.08984C16.273 8.08984 16.7851 8.20144 17.2972 8.4023Z" fill="#58CC02"/>
<path d="M22.7738 28.3781C22.8183 28.2218 22.707 28.0879 22.5511 28.0879H19.5451C19.3892 28.0879 19.2779 28.2442 19.3224 28.3781C19.5673 29.0699 20.2576 29.5609 21.037 29.5609C21.8163 29.5609 22.5288 29.0699 22.7738 28.3781ZM27.7839 28.0879H24.7778C24.622 28.0879 24.5106 28.2442 24.5551 28.3781C24.8001 29.0699 25.4904 29.5609 26.2697 29.5609C27.0491 29.5609 27.7615 29.0699 28.0065 28.3781C28.0511 28.2442 27.9398 28.0879 27.7839 28.0879ZM25.1564 30.61H22.1503C21.9944 30.61 21.8831 30.7661 21.9276 30.9C22.1726 31.592 22.8629 32.083 23.6422 32.083C24.4216 32.083 25.1341 31.592 25.379 30.9C25.4458 30.7661 25.3345 30.61 25.1564 30.61Z" fill="#89E219"/>
<path d="M17.987 10.2782L21.5943 14.2062C21.7947 14.4071 21.7056 14.7418 21.4607 14.8757C20.2137 15.4337 18.7441 15.1212 17.8089 14.0723C16.8737 13.0233 16.7178 11.528 17.3858 10.3451C17.5417 10.0996 17.7866 10.0773 17.987 10.2782Z" fill="#89E219"/>
<path fill-rule="evenodd" clip-rule="evenodd" d="M21.1024 13.7147C22.4162 15.0539 24.732 15.0539 26.1793 13.7147C27.6267 12.3757 25.9567 21.4815 25.9567 21.4369C25.9567 21.4369 25.1773 21.4146 23.6186 21.4369C23.1955 21.4369 22.4385 21.4369 21.3697 21.4369C20.3231 15.4109 20.234 12.822 21.1024 13.7147Z" fill="#89E219"/>
<path d="M16.0052 11.2157L19.5234 15.166C19.7238 15.3669 19.6347 15.7016 19.3897 15.8355C18.1428 16.3935 16.6732 16.081 15.738 15.0321C14.8027 13.9831 14.6469 12.4878 15.3371 11.3049C15.4707 11.0371 15.8048 11.0148 16.0052 11.2157Z" fill="#89E219"/>
<path fill-rule="evenodd" clip-rule="evenodd" d="M17.6515 12.3086H17.7851C20.3903 12.3086 22.4834 14.4288 22.4834 17.0178V19.5174C22.4834 22.1287 20.3681 24.2266 17.7851 24.2266H17.6515C15.0462 24.2266 12.9531 22.1064 12.9531 19.5174V17.0401C12.9531 14.4288 15.0462 12.3086 17.6515 12.3086Z" fill="#89E219"/>
<path d="M29.2994 10.2782L25.7588 14.2062C25.5584 14.4071 25.6475 14.7418 25.8924 14.8757C27.1395 15.4337 28.6091 15.1212 29.5442 14.0723C30.4794 13.0233 30.6353 11.528 29.9451 10.3451C29.8114 10.0996 29.4774 10.0773 29.2994 10.2782Z" fill="#89E219"/>
<path d="M31.3461 11.2157L27.8057 15.166C27.6053 15.3669 27.6944 15.7016 27.9394 15.8355C29.1862 16.3935 30.6559 16.081 31.5911 15.0321C32.5264 13.9831 32.6823 12.4878 31.992 11.3049C31.8807 11.0371 31.5466 11.0148 31.3461 11.2157Z" fill="#89E219"/>
<path fill-rule="evenodd" clip-rule="evenodd" d="M29.5228 12.3086H29.6563C32.2616 12.3086 34.3548 14.4288 34.3548 17.0178V19.5174C34.3548 22.1287 32.2392 24.2266 29.6563 24.2266H29.545C26.962 24.2266 24.8689 22.1287 24.8467 19.5397L24.8244 17.0401C24.8021 14.4288 26.8952 12.3086 29.5228 12.3086Z" fill="#89E219"/>
<path fill-rule="evenodd" clip-rule="evenodd" d="M23.6857 19.5391C24.5986 19.5391 25.3557 20.2979 25.3557 21.2129V21.7486C25.3557 22.6636 24.5986 23.4225 23.6857 23.4225C22.7727 23.4225 22.0156 22.6636 22.0156 21.7486V21.2129C22.0156 20.2979 22.7727 19.5391 23.6857 19.5391Z" fill="#F49000"/>
<path d="M21.3711 21.3245C21.5715 20.2979 22.5512 19.5391 23.7091 19.5391C24.8002 19.5391 25.7577 20.3202 25.9581 21.3245V21.4138C25.9581 21.4808 25.9358 21.5254 25.869 21.5031L23.7091 21.8825C23.6646 21.8825 23.6646 21.8825 23.6201 21.8825L21.4602 21.5031C21.3934 21.5031 21.3711 21.4808 21.3711 21.4138V21.3245Z" fill="#FFC200"/>
<path d="M24.1788 20.6347C24.1342 20.6347 24.112 20.6347 24.0674 20.6124C23.778 20.5007 23.5108 20.5007 23.2658 20.6124C23.0877 20.6793 22.9095 20.59 22.8428 20.4338C22.7759 20.2552 22.865 20.0767 23.0209 20.0098C23.4217 19.8535 23.8448 19.8535 24.2901 20.0098C24.4682 20.0767 24.5573 20.2552 24.4905 20.4338C24.446 20.5454 24.3124 20.6347 24.1788 20.6347Z" fill="#FFDE00"/>
<path fill-rule="evenodd" clip-rule="evenodd" d="M17.8983 14.0059C19.7019 14.0059 21.1715 15.4789 21.1715 17.2867V19.273C21.1715 21.0808 19.7019 22.5538 17.8983 22.5538C16.0946 22.5538 14.625 21.0808 14.625 19.273V17.2867C14.625 15.4789 16.0946 14.0059 17.8983 14.0059Z" fill="white"/>
<path fill-rule="evenodd" clip-rule="evenodd" d="M18.4114 15.8789C19.2576 15.8789 19.9478 16.5708 19.9478 17.4189V19.1151C19.9478 19.9632 19.2576 20.655 18.4114 20.655C17.5653 20.655 16.875 19.9632 16.875 19.1151V17.4189C16.875 16.5708 17.5653 15.8789 18.4114 15.8789Z" fill="#122431"/>
<path d="M17.1192 17.7997C17.6726 17.7997 18.1212 17.35 18.1212 16.7953C18.1212 16.2407 17.6726 15.791 17.1192 15.791C16.5658 15.791 16.1172 16.2407 16.1172 16.7953C16.1172 17.35 16.5658 17.7997 17.1192 17.7997Z" fill="white"/>
<path fill-rule="evenodd" clip-rule="evenodd" d="M29.41 14.0059C31.2136 14.0059 32.6833 15.4789 32.6833 17.2867V19.273C32.6833 21.0808 31.2136 22.5538 29.41 22.5538C27.6062 22.5538 26.1367 21.0808 26.1367 19.273V17.2867C26.1367 15.4789 27.6062 14.0059 29.41 14.0059Z" fill="white"/>
<path fill-rule="evenodd" clip-rule="evenodd" d="M28.8958 15.8789C29.7419 15.8789 30.4322 16.5708 30.4322 17.4189V19.1151C30.4322 19.9632 29.7419 20.655 28.8958 20.655C28.0496 20.655 27.3594 19.9632 27.3594 19.1151V17.4189C27.3594 16.5708 28.0496 15.8789 28.8958 15.8789Z" fill="#122431"/>
<path d="M27.4278 17.7997C27.9812 17.7997 28.4298 17.35 28.4298 16.7953C28.4298 16.2407 27.9812 15.791 27.4278 15.791C26.8744 15.791 26.4258 16.2407 26.4258 16.7953C26.4258 17.35 26.8744 17.7997 27.4278 17.7997Z" fill="white"/>
<path opacity="0.3" fill-rule="evenodd" clip-rule="evenodd" d="M14.2673 38.0195H33.2387C33.7509 38.0195 34.174 38.4436 34.174 38.957C34.174 39.4703 33.7509 39.8944 33.2387 39.8944H14.2673C13.7551 39.8944 13.332 39.4703 13.332 38.957C13.332 38.4436 13.7551 38.0195 14.2673 38.0195Z" fill="#AFAFAF"/>
</g>
<defs>
<clipPath id="clip0_811_87753">
<rect width="33.3742" height="32" fill="white" transform="translate(7 8)"/>
</clipPath>
</defs>
</svg>
