<svg width="112" height="112" viewBox="0 0 112 112" fill="none" xmlns="http://www.w3.org/2000/svg">
<path d="M46 5.7735C52.188 2.20085 59.812 2.20085 66 5.7735L94.4974 22.2265C100.685 25.7992 104.497 32.4017 104.497 39.547V72.453C104.497 79.5983 100.685 86.2008 94.4974 89.7735L66 106.227C59.812 109.799 52.188 109.799 46 106.226L17.5026 89.7735C11.3146 86.2008 7.50258 79.5983 7.50258 72.453V39.547C7.50258 32.4017 11.3146 25.7992 17.5026 22.2265L46 5.7735Z" fill="#3FDD78"/>
<path d="M80.531 61.4712C79.6198 65.7224 77.5985 69.6336 74.6628 72.8652L70.8853 69.131C77.3414 61.8107 77.3487 50.8343 70.9074 43.5053L74.6856 39.7705C77.5588 42.9425 79.5558 46.7719 80.485 50.929L82.9491 50.3909C81.816 45.3202 79.2447 40.6902 75.513 37.001C71.7564 33.2877 67.0391 30.7386 61.871 29.6292L61.3354 32.0671C65.663 32.9961 69.6415 35.0397 72.9114 37.9966L69.1376 41.7271C61.7248 35.184 50.4839 35.1353 43.011 41.576L39.2334 37.8417C42.5027 34.9395 46.4593 32.9413 50.7599 32.0408L50.237 29.6C45.0139 30.6939 40.2489 33.253 36.4574 37.0012C32.7687 40.6476 30.2103 45.2205 29.0587 50.2257L31.5195 50.7791C32.4799 46.6054 34.5204 42.7639 37.4416 39.5981L41.2158 43.3291C34.5674 50.7152 34.5743 61.9297 41.2381 69.3071L37.4643 73.0376C34.4733 69.8053 32.406 65.8726 31.4662 61.5944L29 62.1239C30.1226 67.233 32.7013 71.8961 36.4574 75.6096C40.228 79.3368 44.9642 81.8898 50.154 82.9932L50.6847 80.5541C46.4249 79.6487 42.5035 77.6639 39.2588 74.7915L43.0368 71.0567C46.7395 74.2367 51.3607 75.832 55.9851 75.832C60.6833 75.832 65.3801 74.188 69.1118 70.9055L72.8861 74.6366C69.6405 77.5635 65.6973 79.5936 61.41 80.5275L61.9529 82.9638C67.0888 81.8449 71.7778 79.3018 75.513 75.6094C79.3043 71.8616 81.8932 67.1516 83 61.9885L80.531 61.4712ZM49.1313 63.0808C47.2896 61.2601 46.2838 58.8151 46.2956 56.2661C48.5785 55.676 50.7158 54.5053 52.4465 52.7943C54.1733 51.0874 55.3587 48.9795 55.9568 46.7266C58.5324 46.7181 61 47.712 62.8392 49.5299C64.6891 51.3588 65.6956 53.8177 65.6745 56.3794C63.4054 56.9726 61.2821 58.141 59.5605 59.8427C57.8408 61.5429 56.659 63.6411 56.0585 65.8839C53.4703 65.9048 50.9818 64.9099 49.1313 63.0808ZM50.6621 51.0305C47.6065 54.0516 42.9987 55.0111 38.9882 53.5313C39.5507 50.1327 41.15 46.8709 43.7955 44.2555C46.4456 41.636 49.7513 40.0538 53.1951 39.4998C54.6866 43.4617 53.7131 48.0142 50.6621 51.0305ZM61.3451 61.6068C64.3912 58.5956 68.9792 57.6306 72.9809 59.0905C72.4165 62.4851 70.8177 65.7426 68.1748 68.3552C65.5311 70.9686 62.2346 72.5493 58.7997 73.1068C57.325 69.1522 58.302 64.6152 61.3451 61.6068ZM68.1747 44.2553C71.5957 47.6373 73.2714 52.0988 73.2099 56.5409C71.5719 56.0355 69.8709 55.8508 68.1946 55.9708C68.1109 52.8976 66.8525 49.9693 64.6235 47.766C62.4044 45.5721 59.4588 44.3301 56.364 44.2375C56.4829 42.5791 56.2933 40.8965 55.7788 39.2772C60.2617 39.2245 64.7616 40.8814 68.1747 44.2553ZM43.7955 68.3552C40.3809 64.9788 38.7051 60.5266 38.7606 56.092C40.0885 56.5057 41.4594 56.7112 42.8251 56.7111C43.1432 56.7111 43.4606 56.6962 43.7773 56.6743C43.8694 59.7348 45.1263 62.6497 47.347 64.8447C49.5764 67.0488 52.5368 68.2916 55.645 68.3745C55.523 70.0318 55.7092 71.7137 56.2197 73.3329C51.7275 73.3927 47.216 71.7361 43.7955 68.3552Z" fill="#141718"/>
</svg>
