<svg width="40" height="40" viewBox="0 0 40 40" fill="none" xmlns="http://www.w3.org/2000/svg">
<rect width="40" height="40" rx="20" fill="#8E55EA" fill-opacity="0.15"/>
<path d="M25.9991 10C23.79 10 21.9991 11.7909 21.9991 14C21.9991 16.2091 23.79 18 25.9991 18C28.2083 18 29.9991 16.2091 29.9991 14C29.9991 11.7909 28.2083 10 25.9991 10Z" fill="#8E55EA"/>
<path d="M25.7653 19.9553C25.2748 19.7519 24.7235 19.7519 24.233 19.9553C23.8619 20.1092 23.6083 20.3766 23.4253 20.6034C23.2645 20.8028 23.0925 21.0575 22.9081 21.3338L20.1145 17.2987C19.9129 17.0074 19.7249 16.7359 19.5505 16.527C19.3674 16.3077 19.1158 16.0518 18.7523 15.9041C18.2694 15.7078 17.7289 15.7078 17.246 15.9041C16.8825 16.0518 16.6309 16.3077 16.4478 16.527C16.2734 16.7359 16.0855 17.0074 15.8838 17.2987L9.8904 25.9558C9.63015 26.3317 9.39684 26.6687 9.23531 26.9546C9.0744 27.2394 8.88807 27.6326 8.90997 28.0947C8.93788 28.6837 9.22432 29.2304 9.69273 29.5887C10.0602 29.8697 10.4896 29.9403 10.8153 29.9701C11.1423 30.0001 11.5521 30 12.0093 30L26.9992 30C27.0027 30 27.0063 30 27.0099 30L28.0528 30C28.5012 30 28.9044 30 29.2268 29.9705C29.5495 29.9409 29.9727 29.8708 30.3373 29.595C30.8036 29.2422 31.0923 28.7029 31.1271 28.1192C31.1544 27.6628 30.9779 27.2718 30.8236 26.9869C30.6693 26.7023 30.4456 26.3668 30.1969 25.9937L27.1404 21.409C26.937 21.1038 26.7483 20.8207 26.573 20.6034C26.3901 20.3766 26.1364 20.1092 25.7653 19.9553Z" fill="#8E55EA"/>
</svg>
