<svg width="40" height="40" viewBox="0 0 40 40" fill="none" xmlns="http://www.w3.org/2000/svg">
<path fill-rule="evenodd" clip-rule="evenodd" d="M20.7755 10.7507C21.9071 9.65777 23.4227 9.053 24.9959 9.06667C26.5691 9.08034 28.074 9.71136 29.1864 10.8238C30.2988 11.9363 30.9299 13.4411 30.9435 15.0143C30.9572 16.5875 30.3524 18.1031 29.2595 19.2347L29.2473 19.2471L26.2474 22.247C25.6392 22.8555 24.9072 23.326 24.101 23.6267C23.2949 23.9274 22.4336 24.0512 21.5754 23.9898C20.7172 23.9283 19.8823 23.683 19.1273 23.2705C18.3723 22.858 17.7148 22.2879 17.1994 21.599C16.8686 21.1567 16.959 20.53 17.4012 20.1992C17.8435 19.8684 18.4702 19.9588 18.801 20.401C19.1445 20.8603 19.5829 21.2404 20.0862 21.5154C20.5896 21.7904 21.1462 21.9539 21.7183 21.9949C22.2904 22.0359 22.8646 21.9533 23.402 21.7529C23.9394 21.5524 24.4275 21.2387 24.833 20.833L27.8266 17.8394C28.5516 17.0856 28.9527 16.0777 28.9436 15.0317C28.9345 13.9829 28.5138 12.9797 27.7722 12.238C27.0306 11.4964 26.0273 11.0757 24.9785 11.0666C23.932 11.0575 22.9237 11.4589 22.1698 12.1845L20.4552 13.8892C20.0636 14.2786 19.4304 14.2767 19.041 13.885C18.6516 13.4934 18.6535 12.8602 19.0452 12.4708L20.7652 10.7608L20.7755 10.7507Z" fill="#232627"/>
<path fill-rule="evenodd" clip-rule="evenodd" d="M15.8994 16.3733C16.7055 16.0726 17.5668 15.9488 18.425 16.0102C19.2832 16.0717 20.1181 16.317 20.8731 16.7295C21.6281 17.142 22.2856 17.7121 22.801 18.401C23.1318 18.8433 23.0414 19.47 22.5992 19.8008C22.1569 20.1316 21.5302 20.0412 21.1994 19.599C20.8559 19.1397 20.4175 18.7596 19.9142 18.4846C19.4108 18.2096 18.8542 18.0461 18.2821 18.0051C17.71 17.9641 17.1358 18.0467 16.5984 18.2472C16.061 18.4476 15.5729 18.7613 15.1674 19.167L12.1738 22.1606C11.4488 22.9144 11.0477 23.9223 11.0568 24.9683C11.0659 26.0171 11.4866 27.0204 12.2282 27.762C12.9698 28.5036 13.9731 28.9243 15.0219 28.9334C16.0679 28.9425 17.0758 28.5415 17.8296 27.8164L19.5331 26.1129C19.9236 25.7224 20.5568 25.7224 20.9473 26.1129C21.3378 26.5034 21.3378 27.1366 20.9473 27.5271L19.2373 29.2371L19.2249 29.2493C18.0933 30.3422 16.5777 30.947 15.0045 30.9333C13.4313 30.9197 11.9264 30.2887 10.814 29.1762C9.70155 28.0638 9.07054 26.5589 9.05687 24.9857C9.0432 23.4125 9.64796 21.8969 10.7409 20.7653L10.7531 20.7529L13.753 17.753C13.753 17.753 13.7529 17.7531 13.753 17.753C14.3612 17.1446 15.0933 16.674 15.8994 16.3733Z" fill="#232627"/>
</svg>
