<svg width="194" height="48" viewBox="0 0 194 48" fill="none" xmlns="http://www.w3.org/2000/svg">
<path d="M39.4477 15.5013L39.4403 10.2881L29.8201 4V8.02159L36.1655 12.1996L36.1705 15.402L33.2227 17.3979L31.2116 15.9307V13.4458L27.9344 11.2041V15.7272L22.7396 18.9147L22.7298 27.3352L19.0567 29.4031L17.1711 27.926V25.4882L19.4034 23.959V23.9392V20.1658L15.3862 22.8543L12.3155 20.856L9.51034 22.693L13.8939 25.6943V27.5363L10.7347 29.6737L7.51157 27.4916V20.2304L12.2958 16.9907L12.3008 13.8753L18.4372 17.8273L23.5952 14.3941L20.4507 12.5595L18.393 13.9472L13.9111 10.9832L18.9658 8.03649L23.3444 10.6034V6.7754L18.9707 4.211L9.02848 10.0076L9.0211 15.2232L4.23438 18.4653V29.2566L9.0211 32.4987L9.02848 37.7144L18.6486 44V39.9809L12.3032 35.8029L12.2983 32.6005L15.246 30.6046L17.2571 32.0717V34.5567L20.5343 36.7984V32.2753L25.8029 29.0878L25.8619 20.6673L29.412 18.5994L31.2977 20.0765V22.5142L29.0654 24.0434V24.0633V27.8366L33.0826 25.1481L36.1532 27.1465L38.9584 25.3095L34.5749 22.3057V20.4662L37.7341 18.3288L40.9572 20.5109V27.7721L36.1729 31.0117L36.168 34.1272L30.0315 30.1727L24.8736 33.5836L28.018 35.4156L30.0758 34.0552L34.5577 37.0193L29.503 39.966L25.1244 37.3991V41.2246L29.498 43.789L39.4403 37.9949L39.4477 32.7792L44.2344 29.5371V18.7434L39.4477 15.5013Z" fill="#0084FF"/>
<path d="M60.2344 34.7038V14.3402H68.7259C70.2505 14.3402 71.5265 14.5556 72.554 14.9865C73.5881 15.4174 74.3636 16.0206 74.8807 16.7962C75.4044 17.5717 75.6662 18.4699 75.6662 19.4908C75.6662 20.2663 75.5038 20.959 75.179 21.5689C74.8542 22.1721 74.4067 22.6726 73.8366 23.0703C73.2666 23.468 72.607 23.7464 71.858 23.9055V24.1044C72.6799 24.1442 73.4389 24.3662 74.1349 24.7706C74.8376 25.175 75.401 25.7384 75.8253 26.4609C76.2495 27.1768 76.4616 28.0253 76.4616 29.0064C76.4616 30.1001 76.1832 31.0779 75.6264 31.9396C75.0696 32.7947 74.2642 33.4709 73.2102 33.968C72.1562 34.4586 70.8769 34.7038 69.3722 34.7038H60.2344ZM65.1562 30.7365H68.1989C69.2661 30.7365 70.0516 30.5343 70.5554 30.13C71.0658 29.7256 71.321 29.1622 71.321 28.4396C71.321 27.916 71.1984 27.4652 70.9531 27.0874C70.7079 26.7029 70.3598 26.4079 69.9091 26.2024C69.4583 25.9903 68.9181 25.8842 68.2884 25.8842H65.1562V30.7365ZM65.1562 22.7124H67.8807C68.4176 22.7124 68.8949 22.6229 69.3125 22.4439C69.7301 22.2649 70.0549 22.0064 70.2869 21.6683C70.5256 21.3303 70.6449 20.9226 70.6449 20.4453C70.6449 19.7625 70.4029 19.2256 69.919 18.8345C69.4351 18.4434 68.7822 18.2479 67.9602 18.2479H65.1562V22.7124Z" fill="#141718"/>
<path d="M77.7081 34.7038V19.4311H82.4311V22.2152H82.5902C82.8686 21.2076 83.3227 20.4586 83.9524 19.968C84.5822 19.4709 85.3147 19.2223 86.1499 19.2223C86.3753 19.2223 86.6073 19.2389 86.8459 19.272C87.0845 19.2985 87.3066 19.3416 87.5121 19.4013V23.6271C87.2801 23.5476 86.9752 23.4846 86.5973 23.4382C86.2261 23.3918 85.8947 23.3686 85.603 23.3686C85.0263 23.3686 84.5059 23.4979 84.0419 23.7564C83.5845 24.0083 83.2233 24.3629 82.9581 24.8203C82.6996 25.2711 82.5703 25.8014 82.5703 26.4112V34.7038H77.7081Z" fill="#141718"/>
<path d="M92.1045 34.9624C91.13 34.9624 90.265 34.8 89.5093 34.4751C88.7602 34.1437 88.167 33.6465 87.7295 32.9837C87.2986 32.3142 87.0832 31.4756 87.0832 30.468C87.0832 29.6196 87.2323 28.9036 87.5306 28.3203C87.8289 27.737 88.2399 27.263 88.7636 26.8984C89.2872 26.5339 89.8904 26.2588 90.5732 26.0732C91.256 25.8809 91.9851 25.7517 92.7607 25.6854C93.6291 25.6058 94.3284 25.523 94.8587 25.4368C95.389 25.344 95.7735 25.2147 96.0121 25.049C96.2574 24.8767 96.38 24.6347 96.38 24.3232V24.2734C96.38 23.763 96.2044 23.3686 95.853 23.0902C95.5017 22.8118 95.0278 22.6726 94.4312 22.6726C93.7882 22.6726 93.2711 22.8118 92.88 23.0902C92.4889 23.3686 92.2404 23.7531 92.1343 24.2436L87.6499 24.0845C87.7825 23.1565 88.1239 22.3279 88.6741 21.5987C89.2309 20.8629 89.9932 20.2862 90.961 19.8686C91.9354 19.4444 93.1054 19.2322 94.4709 19.2322C95.4454 19.2322 96.3436 19.3482 97.1655 19.5803C97.9875 19.8056 98.7034 20.1371 99.3133 20.5746C99.9231 21.0054 100.394 21.5357 100.725 22.1655C101.063 22.7952 101.232 23.5144 101.232 24.3232V34.7038H96.6584V32.576H96.5391C96.2673 33.093 95.9193 33.5305 95.4951 33.8885C95.0775 34.2465 94.5836 34.5149 94.0135 34.6939C93.4501 34.8729 92.8137 34.9624 92.1045 34.9624ZM93.6059 31.7805C94.1296 31.7805 94.6002 31.6745 95.0178 31.4624C95.4421 31.2502 95.7801 30.9586 96.032 30.5874C96.2839 30.2095 96.4099 29.772 96.4099 29.2749V27.8232C96.2706 27.8961 96.1016 27.9624 95.9028 28.022C95.7105 28.0817 95.4984 28.138 95.2664 28.1911C95.0344 28.2441 94.7957 28.2905 94.5505 28.3303C94.3052 28.37 94.0699 28.4065 93.8445 28.4396C93.3871 28.5125 92.996 28.6252 92.6712 28.7777C92.353 28.9302 92.1078 29.129 91.9354 29.3743C91.7697 29.6129 91.6868 29.898 91.6868 30.2294C91.6868 30.7332 91.8658 31.1177 92.2238 31.3828C92.5884 31.648 93.0491 31.7805 93.6059 31.7805Z" fill="#141718"/>
<path d="M103.085 34.7038V19.4311H107.948V34.7038H103.085ZM105.521 17.6513C104.839 17.6513 104.252 17.4259 103.761 16.9751C103.271 16.5178 103.026 15.9676 103.026 15.3246C103.026 14.6882 103.271 14.1447 103.761 13.6939C104.252 13.2365 104.839 13.0078 105.521 13.0078C106.211 13.0078 106.797 13.2365 107.281 13.6939C107.772 14.1447 108.017 14.6882 108.017 15.3246C108.017 15.9676 107.772 16.5178 107.281 16.9751C106.797 17.4259 106.211 17.6513 105.521 17.6513Z" fill="#141718"/>
<path d="M114.785 25.9936V34.7038H109.922V19.4311H114.546V22.2351H114.715C115.053 21.3004 115.63 20.5679 116.445 20.0376C117.26 19.5007 118.232 19.2322 119.358 19.2322C120.432 19.2322 121.364 19.4742 122.152 19.9581C122.948 20.4354 123.564 21.1049 124.002 21.9666C124.446 22.8217 124.665 23.8227 124.658 24.9695V34.7038H119.796V25.924C119.803 25.0755 119.587 24.4126 119.15 23.9354C118.719 23.4581 118.119 23.2195 117.35 23.2195C116.839 23.2195 116.389 23.3322 115.998 23.5575C115.613 23.7763 115.315 24.0911 115.103 24.5021C114.897 24.9131 114.791 25.4103 114.785 25.9936Z" fill="#141718"/>
<path d="M129.402 34.7038L125.425 19.4311H130.307L132.365 29.2152H132.494L134.702 19.4311H139.465L141.732 29.1456H141.861L143.86 19.4311H148.742L144.754 34.7038H139.554L137.168 25.8047H136.999L134.612 34.7038H129.402Z" fill="#141718"/>
<path d="M153.878 34.9624C152.904 34.9624 152.039 34.8 151.283 34.4751C150.534 34.1437 149.941 33.6465 149.503 32.9837C149.072 32.3142 148.857 31.4756 148.857 30.468C148.857 29.6196 149.006 28.9036 149.305 28.3203C149.603 27.737 150.014 27.263 150.537 26.8984C151.061 26.5339 151.664 26.2588 152.347 26.0732C153.03 25.8809 153.759 25.7517 154.535 25.6854C155.403 25.6058 156.102 25.523 156.633 25.4368C157.163 25.344 157.547 25.2147 157.786 25.049C158.031 24.8767 158.154 24.6347 158.154 24.3232V24.2734C158.154 23.763 157.978 23.3686 157.627 23.0902C157.276 22.8118 156.802 22.6726 156.205 22.6726C155.562 22.6726 155.045 22.8118 154.654 23.0902C154.263 23.3686 154.014 23.7531 153.908 24.2436L149.424 24.0845C149.556 23.1565 149.898 22.3279 150.448 21.5987C151.005 20.8629 151.767 20.2862 152.735 19.8686C153.709 19.4444 154.879 19.2322 156.245 19.2322C157.219 19.2322 158.117 19.3482 158.939 19.5803C159.761 19.8056 160.477 20.1371 161.087 20.5746C161.697 21.0054 162.168 21.5357 162.499 22.1655C162.837 22.7952 163.006 23.5144 163.006 24.3232V34.7038H158.432V32.576H158.313C158.041 33.093 157.693 33.5305 157.269 33.8885C156.851 34.2465 156.358 34.5149 155.787 34.6939C155.224 34.8729 154.588 34.9624 153.878 34.9624ZM155.38 31.7805C155.903 31.7805 156.374 31.6745 156.792 31.4624C157.216 31.2502 157.554 30.9586 157.806 30.5874C158.058 30.2095 158.184 29.772 158.184 29.2749V27.8232C158.045 27.8961 157.876 27.9624 157.677 28.022C157.484 28.0817 157.272 28.138 157.04 28.1911C156.808 28.2441 156.57 28.2905 156.324 28.3303C156.079 28.37 155.844 28.4065 155.618 28.4396C155.161 28.5125 154.77 28.6252 154.445 28.7777C154.127 28.9302 153.882 29.129 153.709 29.3743C153.544 29.6129 153.461 29.898 153.461 30.2294C153.461 30.7332 153.64 31.1177 153.998 31.3828C154.362 31.648 154.823 31.7805 155.38 31.7805Z" fill="#141718"/>
<path d="M179.128 19.4311L173.888 34.7038H168.319L163.089 19.4311H168.21L171.024 29.951H171.183L174.007 19.4311H179.128Z" fill="#141718"/>
<path d="M186.519 34.9922C184.922 34.9922 183.543 34.6773 182.383 34.0476C181.229 33.4112 180.341 32.5064 179.718 31.3331C179.101 30.1532 178.793 28.7512 178.793 27.1271C178.793 25.5495 179.105 24.1707 179.728 22.9908C180.351 21.8042 181.229 20.8828 182.363 20.2266C183.496 19.5637 184.832 19.2322 186.37 19.2322C187.457 19.2322 188.451 19.4013 189.353 19.7393C190.254 20.0774 191.033 20.5779 191.689 21.2408C192.346 21.9036 192.856 22.7223 193.221 23.6967C193.585 24.6645 193.768 25.7749 193.768 27.0277V28.2408H180.493V25.4169H189.243C189.237 24.8999 189.114 24.4392 188.876 24.0348C188.637 23.6304 188.309 23.3156 187.891 23.0902C187.48 22.8582 187.006 22.7422 186.469 22.7422C185.926 22.7422 185.439 22.8648 185.008 23.1101C184.577 23.3487 184.235 23.6768 183.984 24.0945C183.732 24.5054 183.599 24.9728 183.586 25.4965V28.37C183.586 28.9931 183.708 29.54 183.954 30.0107C184.199 30.4747 184.547 30.8359 184.998 31.0945C185.449 31.353 185.985 31.4822 186.609 31.4822C187.039 31.4822 187.431 31.4226 187.782 31.3033C188.133 31.184 188.435 31.0083 188.687 30.7763C188.939 30.5443 189.127 30.2592 189.253 29.9212L193.718 30.0504C193.532 31.0514 193.125 31.9231 192.495 32.6655C191.872 33.4013 191.053 33.9747 190.039 34.3857C189.025 34.79 187.851 34.9922 186.519 34.9922Z" fill="#141718"/>
</svg>
