<?xml version="1.0" encoding="UTF-8"?>
<svg width="186px" height="40px" viewBox="0 0 186 40" version="1.1" xmlns="http://www.w3.org/2000/svg" xmlns:xlink="http://www.w3.org/1999/xlink">
    <title>logo</title>
    <g id="Page-1" stroke="none" stroke-width="1" fill="none" fill-rule="evenodd">
        <g id="logo" fill-rule="nonzero">
            <polygon id="Path" fill="#0084FF" points="35.2133 11.5013 35.2059 6.2881 25.5857 0 25.5857 4.02159 31.9312 8.1996 31.9361 11.402 28.9883 13.3979 26.9773 11.9307 26.9773 9.4458 23.7001 7.2041 23.7001 11.7272 18.5052 14.9147 18.4954 23.3352 14.8224 25.4031 12.9367 23.926 12.9367 21.4882 15.169 19.959 15.169 19.9392 15.169 16.1658 11.1518 18.8543 8.0811 16.856 5.27597 18.693 9.6595 21.6943 9.6595 23.5363 6.5003 25.6737 3.27719 23.4916 3.27719 16.2304 8.0615 12.9907 8.0664 9.8753 14.2028 13.8273 19.3608 10.3941 16.2163 8.5595 14.1586 9.9472 9.6767 6.9832 14.7314 4.03649 19.11 6.6034 19.11 2.7754 14.7363 0.211 4.7941 6.0076 4.78672 11.2232 0 14.4653 0 25.2566 4.78672 28.4987 4.7941 33.7144 14.4143 40 14.4143 35.9809 8.0688 31.8029 8.0639 28.6005 11.0117 26.6046 13.0227 28.0717 13.0227 30.5567 16.2999 32.7984 16.2999 28.2753 21.5685 25.0878 21.6275 16.6673 25.1776 14.5994 27.0633 16.0765 27.0633 18.5142 24.831 20.0434 24.831 20.0633 24.831 23.8366 28.8482 21.1481 31.9189 23.1465 34.724 21.3095 30.3405 18.3057 30.3405 16.4662 33.4997 14.3288 36.7228 16.5109 36.7228 23.7721 31.9385 27.0117 31.9336 30.1272 25.7972 26.1727 20.6392 29.5836 23.7837 31.4156 25.8414 30.0552 30.3233 33.0193 25.2686 35.966 20.89 33.3991 20.89 37.2246 25.2637 39.789 35.2059 33.9949 35.2133 28.7792 40 25.5371 40 14.7434"></polygon>
            <path d="M52,30.7038 L52,10.3402 L60.4915,10.3402 C62.0161,10.3402 63.2921,10.5556 64.3196,10.9865 C65.3537,11.4174 66.1293,12.0206 66.6463,12.7962 C67.17,13.5717 67.4318,14.4699 67.4318,15.4908 C67.4318,16.2663 67.2694,16.959 66.9446,17.5689 C66.6198,18.1721 66.1723,18.6726 65.6023,19.0703 C65.0322,19.468 64.3726,19.7464 63.6236,19.9055 L63.6236,20.1044 C64.4455,20.1442 65.2045,20.3662 65.9006,20.7706 C66.6032,21.175 67.1667,21.7384 67.5909,22.4609 C68.0152,23.1768 68.2273,24.0253 68.2273,25.0064 C68.2273,26.1001 67.9489,27.0779 67.392,27.9396 C66.8352,28.7947 66.0298,29.4709 64.9759,29.968 C63.9219,30.4586 62.6425,30.7038 61.1378,30.7038 L52,30.7038 Z M56.9219,26.7365 L59.9645,26.7365 C61.0317,26.7365 61.8172,26.5343 62.321,26.13 C62.8314,25.7256 63.0866,25.1622 63.0866,24.4396 C63.0866,23.916 62.964,23.4652 62.7188,23.0874 C62.4735,22.7029 62.1255,22.4079 61.6747,22.2024 C61.224,21.9903 60.6837,21.8842 60.054,21.8842 L56.9219,21.8842 L56.9219,26.7365 Z M56.9219,18.7124 L59.6463,18.7124 C60.1832,18.7124 60.6605,18.6229 61.0781,18.4439 C61.4957,18.2649 61.8205,18.0064 62.0526,17.6683 C62.2912,17.3303 62.4105,16.9226 62.4105,16.4453 C62.4105,15.7625 62.1686,15.2256 61.6847,14.8345 C61.2008,14.4434 60.5478,14.2479 59.7259,14.2479 L56.9219,14.2479 L56.9219,18.7124 Z" id="Shape" fill="#FEFEFE"></path>
            <path d="M69.4737,30.7038 L69.4737,15.4311 L74.1968,15.4311 L74.1968,18.2152 L74.3559,18.2152 C74.6343,17.2076 75.0883,16.4586 75.7181,15.968 C76.3478,15.4709 77.0803,15.2223 77.9155,15.2223 C78.1409,15.2223 78.3729,15.2389 78.6115,15.272 C78.8502,15.2985 79.0722,15.3416 79.2777,15.4013 L79.2777,19.6271 C79.0457,19.5476 78.7408,19.4846 78.363,19.4382 C77.9917,19.3918 77.6603,19.3686 77.3686,19.3686 C76.7919,19.3686 76.2716,19.4979 75.8076,19.7564 C75.3502,20.0083 74.9889,20.3629 74.7237,20.8203 C74.4652,21.2711 74.336,21.8014 74.336,22.4112 L74.336,30.7038 L69.4737,30.7038 Z" id="Path" fill="#FEFEFE"></path>
            <path d="M83.8701,30.9624 C82.8957,30.9624 82.0306,30.8 81.2749,30.4751 C80.5259,30.1437 79.9326,29.6465 79.4951,28.9837 C79.0642,28.3142 78.8488,27.4756 78.8488,26.468 C78.8488,25.6196 78.9979,24.9036 79.2962,24.3203 C79.5945,23.737 80.0055,23.263 80.5292,22.8984 C81.0529,22.5339 81.6561,22.2588 82.3388,22.0732 C83.0216,21.8809 83.7508,21.7517 84.5263,21.6854 C85.3947,21.6058 86.094,21.523 86.6243,21.4368 C87.1546,21.344 87.5391,21.2147 87.7778,21.049 C88.023,20.8767 88.1457,20.6347 88.1457,20.3232 L88.1457,20.2734 C88.1457,19.763 87.97,19.3686 87.6187,19.0902 C87.2673,18.8118 86.7934,18.6726 86.1968,18.6726 C85.5538,18.6726 85.0368,18.8118 84.6457,19.0902 C84.2546,19.3686 84.006,19.7531 83.8999,20.2436 L79.4155,20.0845 C79.5481,19.1565 79.8895,18.3279 80.4397,17.5987 C80.9965,16.8629 81.7588,16.2862 82.7266,15.8686 C83.7011,15.4444 84.871,15.2322 86.2366,15.2322 C87.211,15.2322 88.1092,15.3482 88.9312,15.5803 C89.7531,15.8056 90.469,16.1371 91.0789,16.5746 C91.6887,17.0054 92.1594,17.5357 92.4908,18.1655 C92.8289,18.7952 92.9979,19.5144 92.9979,20.3232 L92.9979,30.7038 L88.4241,30.7038 L88.4241,28.576 L88.3047,28.576 C88.033,29.093 87.6849,29.5305 87.2607,29.8885 C86.8431,30.2465 86.3493,30.5149 85.7792,30.6939 C85.2157,30.8729 84.5794,30.9624 83.8701,30.9624 Z M85.3715,27.7805 C85.8952,27.7805 86.3658,27.6745 86.7834,27.4624 C87.2077,27.2502 87.5457,26.9586 87.7976,26.5874 C88.0495,26.2095 88.1755,25.772 88.1755,25.2749 L88.1755,23.8232 C88.0363,23.8961 87.8672,23.9624 87.6684,24.022 C87.4761,24.0817 87.264,24.138 87.032,24.1911 C86.8,24.2441 86.5614,24.2905 86.3161,24.3303 C86.0708,24.37 85.8355,24.4065 85.6101,24.4396 C85.1528,24.5125 84.7617,24.6252 84.4368,24.7777 C84.1187,24.9302 83.8734,25.129 83.7011,25.3743 C83.5353,25.6129 83.4525,25.898 83.4525,26.2294 C83.4525,26.7332 83.6315,27.1177 83.9894,27.3828 C84.354,27.648 84.8147,27.7805 85.3715,27.7805 Z" id="Shape" fill="#FEFEFE"></path>
            <path d="M94.8509,30.7038 L94.8509,15.4311 L99.713,15.4311 L99.713,30.7038 L94.8509,30.7038 Z M97.287,13.6513 C96.604,13.6513 96.018,13.4259 95.5271,12.9751 C95.0365,12.5178 94.7913,11.9676 94.7913,11.3246 C94.7913,10.6882 95.0365,10.1447 95.5271,9.6939 C96.018,9.2365 96.604,9.0078 97.287,9.0078 C97.976,9.0078 98.563,9.2365 99.047,9.6939 C99.537,10.1447 99.783,10.6882 99.783,11.3246 C99.783,11.9676 99.537,12.5178 99.047,12.9751 C98.563,13.4259 97.976,13.6513 97.287,13.6513 Z" id="Shape" fill="#FEFEFE"></path>
            <path d="M106.55,21.9936 L106.55,30.7038 L101.688,30.7038 L101.688,15.4311 L106.312,15.4311 L106.312,18.2351 L106.481,18.2351 C106.819,17.3004 107.395,16.5679 108.211,16.0376 C109.026,15.5007 109.997,15.2322 111.124,15.2322 C112.198,15.2322 113.129,15.4742 113.918,15.9581 C114.714,16.4354 115.33,17.1049 115.768,17.9666 C116.212,18.8217 116.43,19.8227 116.424121,20.9695 L116.424121,30.7038 L111.562,30.7038 L111.562,21.924 C111.568,21.0755 111.353,20.4126 110.915,19.9354 C110.484,19.4581 109.884,19.2195 109.116,19.2195 C108.605,19.2195 108.154,19.3322 107.763,19.5575 C107.379,19.7763 107.08,20.0911 106.868,20.5021 C106.663,20.9131 106.557,21.4103 106.55,21.9936 Z" id="Path" fill="#FEFEFE"></path>
            <polygon id="Path" fill="#FEFEFE" points="121.168 30.7038 117.19 15.4311 122.073 15.4311 124.131 25.2152 124.26 25.2152 126.467 15.4311 131.23 15.4311 133.497 25.1456 133.627 25.1456 135.625 15.4311 140.507 15.4311 136.52 30.7038 131.32 30.7038 128.933 21.8047 128.764 21.8047 126.378 30.7038"></polygon>
            <path d="M145.644,30.9624 C144.67,30.9624 143.805,30.8 143.049,30.4751 C142.3,30.1437 141.706,29.6465 141.269,28.9837 C140.838,28.3142 140.623,27.4756 140.623,26.468 C140.623,25.6196 140.772,24.9036 141.07,24.3203 C141.368,23.737 141.779,23.263 142.303,22.8984 C142.827,22.5339 143.43,22.2588 144.113,22.0732 C144.796,21.8809 145.525,21.7517 146.3,21.6854 C147.169,21.6058 147.868,21.523 148.398,21.4368 C148.929,21.344 149.313,21.2147 149.552,21.049 C149.797,20.8767 149.92,20.6347 149.92,20.3232 L149.92,20.2734 C149.92,19.763 149.744,19.3686 149.393,19.0902 C149.041,18.8118 148.567,18.6726 147.971,18.6726 C147.328,18.6726 146.811,18.8118 146.42,19.0902 C146.028,19.3686 145.78,19.7531 145.674,20.2436 L141.189,20.0845 C141.322,19.1565 141.663,18.3279 142.214,17.5987 C142.77,16.8629 143.533,16.2862 144.501,15.8686 C145.475,15.4444 146.645,15.2322 148.01,15.2322 C148.985,15.2322 149.883,15.3482 150.705,15.5803 C151.527,15.8056 152.243,16.1371 152.853,16.5746 C153.463,17.0054 153.933,17.5357 154.265,18.1655 C154.603,18.7952 154.772,19.5144 154.772,20.3232 L154.772,30.7038 L150.198,30.7038 L150.198,28.576 L150.079,28.576 C149.807,29.093 149.459,29.5305 149.035,29.8885 C148.617,30.2465 148.123,30.5149 147.553,30.6939 C146.99,30.8729 146.353,30.9624 145.644,30.9624 Z M147.145,27.7805 C147.669,27.7805 148.14,27.6745 148.557,27.4624 C148.982,27.2502 149.32,26.9586 149.572,26.5874 C149.823,26.2095 149.949,25.772 149.949,25.2749 L149.949,23.8232 C149.81,23.8961 149.641,23.9624 149.442,24.022 C149.25,24.0817 149.038,24.138 148.806,24.1911 C148.574,24.2441 148.335,24.2905 148.09,24.3303 C147.845,24.37 147.609,24.4065 147.384,24.4396 C146.927,24.5125 146.536,24.6252 146.211,24.7777 C145.893,24.9302 145.647,25.129 145.475,25.3743 C145.309,25.6129 145.226,25.898 145.226,26.2294 C145.226,26.7332 145.405,27.1177 145.763,27.3828 C146.128,27.648 146.589,27.7805 147.145,27.7805 Z" id="Shape" fill="#FEFEFE"></path>
            <polygon id="Path" fill="#FEFEFE" points="170.893 15.4311 165.653 30.7038 160.085 30.7038 154.855 15.4311 159.976 15.4311 162.79 25.951 162.949 25.951 165.773 15.4311"></polygon>
            <path d="M178.285,30.9922 C176.687,30.9922 175.308,30.6773 174.148,30.0476 C172.995,29.4112 172.107,28.5064 171.484,27.3331 C170.867,26.1532 170.559,24.7512 170.559,23.1271 C170.559,21.5495 170.87,20.1707 171.493,18.9908 C172.117,17.8042 172.995,16.8828 174.128,16.2266 C175.262,15.5637 176.598,15.2322 178.136,15.2322 C179.223,15.2322 180.217,15.4013 181.118,15.7393 C182.02,16.0774 182.799,16.5779 183.455,17.2408 C184.111,17.9036 184.622,18.7223 184.986,19.6967 C185.351,20.6645 185.533,21.7749 185.533,23.0277 L185.533,24.2408 L172.259,24.2408 L172.259,21.4169 L181.009,21.4169 C181.002,20.8999 180.88,20.4392 180.641,20.0348 C180.403,19.6304 180.074,19.3156 179.657,19.0902 C179.246,18.8582 178.772,18.7422 178.235,18.7422 C177.691,18.7422 177.204,18.8648 176.773,19.1101 C176.342,19.3487 176.001,19.6768 175.749,20.0945 C175.497,20.5054 175.365,20.9728 175.351,21.4965 L175.351,24.37 C175.351,24.9931 175.474,25.54 175.719,26.0107 C175.965,26.4747 176.313,26.8359 176.763,27.0945 C177.214,27.353 177.751,27.4822 178.374,27.4822 C178.805,27.4822 179.196,27.4226 179.547,27.3033 C179.899,27.184 180.2,27.0083 180.452,26.7763 C180.704,26.5443 180.893,26.2592 181.019,25.9212 L185.484,26.0504 C185.298,27.0514 184.89,27.9231 184.261,28.6655 C183.637,29.4013 182.819,29.9747 181.805,30.3857 C180.79,30.79 179.617,30.9922 178.285,30.9922 Z" id="Path" fill="#FEFEFE"></path>
        </g>
    </g>
</svg>