<svg version="1.1" id="Layer_1" xmlns="http://www.w3.org/2000/svg" xmlns:xlink="http://www.w3.org/1999/xlink" x="0px" y="0px"
	 width="100%" viewBox="0 0 64 64" enable-background="new 0 0 64 64" xml:space="preserve">
<path fill="#F3F3F3" opacity="1.000000" stroke="none" 
	d="
M43.000290,65.000000 
	C28.666895,65.000000 14.833565,65.000000 1.000176,65.000000 
	C1.000118,43.666752 1.000118,22.333500 1.000059,1.000188 
	C22.333244,1.000125 43.666489,1.000125 64.999802,1.000063 
	C64.999863,22.333239 64.999863,43.666477 64.999931,64.999863 
	C57.833450,65.000000 50.666901,65.000000 43.000290,65.000000 
M16.503155,3.866315 
	C12.090735,3.866315 7.678317,3.866315 3.314337,3.866315 
	C3.314337,13.491650 3.314337,22.387476 3.314337,31.331852 
	C12.671352,31.331852 21.709793,31.331852 30.692989,31.331852 
	C30.692989,22.036800 30.692989,13.124254 30.692989,3.866255 
	C26.094519,3.866255 21.795721,3.866255 16.503155,3.866315 
M39.700871,31.707615 
	C46.989693,31.707615 54.278515,31.707615 61.749847,31.707615 
	C61.749847,22.150023 61.749847,13.127304 61.749847,4.233829 
	C52.460499,4.233829 43.560436,4.233829 34.577171,4.233829 
	C34.577171,13.513691 34.577171,22.421963 34.577171,31.707373 
	C36.158840,31.707373 37.458572,31.707373 39.700871,31.707615 
M16.503565,62.131947 
	C21.245632,62.131947 25.987700,62.131947 30.681015,62.131947 
	C30.681015,52.497059 30.681015,43.605343 30.681015,34.665665 
	C21.323574,34.665665 12.290126,34.665665 3.311247,34.665665 
	C3.311247,43.961365 3.311247,52.869469 3.311247,62.132019 
	C7.578698,62.132019 11.543101,62.132019 16.503565,62.131947 
M42.574852,34.276638 
	C39.960388,34.276638 37.345928,34.276638 34.695480,34.276638 
	C34.695480,43.814468 34.695480,52.829342 34.695480,61.764664 
	C44.015572,61.764664 52.912266,61.764664 61.774178,61.764664 
	C61.774178,52.506527 61.774178,43.616974 61.774178,34.276890 
	C55.470814,34.276890 49.513554,34.276890 42.574852,34.276638 
z"/>
<path fill="#F35325" opacity="1.000000" stroke="none" 
	d="
M17.000038,3.866285 
	C21.795721,3.866255 26.094519,3.866255 30.692989,3.866255 
	C30.692989,13.124254 30.692989,22.036800 30.692989,31.331852 
	C21.709793,31.331852 12.671352,31.331852 3.314337,31.331852 
	C3.314337,22.387476 3.314337,13.491650 3.314337,3.866315 
	C7.678317,3.866315 12.090735,3.866315 17.000038,3.866285 
z"/>
<path fill="#81BC06" opacity="1.000000" stroke="none" 
	d="
M39.229584,31.707493 
	C37.458572,31.707373 36.158840,31.707373 34.577171,31.707373 
	C34.577171,22.421963 34.577171,13.513691 34.577171,4.233829 
	C43.560436,4.233829 52.460499,4.233829 61.749847,4.233829 
	C61.749847,13.127304 61.749847,22.150023 61.749847,31.707615 
	C54.278515,31.707615 46.989693,31.707615 39.229584,31.707493 
z"/>
<path fill="#05A6F0" opacity="1.000000" stroke="none" 
	d="
M16.005535,62.131981 
	C11.543101,62.132019 7.578698,62.132019 3.311247,62.132019 
	C3.311247,52.869469 3.311247,43.961365 3.311247,34.665665 
	C12.290126,34.665665 21.323574,34.665665 30.681015,34.665665 
	C30.681015,43.605343 30.681015,52.497059 30.681015,62.131947 
	C25.987700,62.131947 21.245632,62.131947 16.005535,62.131981 
z"/>
<path fill="#FFBA08" opacity="1.000000" stroke="none" 
	d="
M43.065571,34.276764 
	C49.513554,34.276890 55.470814,34.276890 61.774178,34.276890 
	C61.774178,43.616974 61.774178,52.506527 61.774178,61.764664 
	C52.912266,61.764664 44.015572,61.764664 34.695480,61.764664 
	C34.695480,52.829342 34.695480,43.814468 34.695480,34.276638 
	C37.345928,34.276638 39.960388,34.276638 43.065571,34.276764 
z"/>
</svg>