<svg width="48" height="48" viewBox="0 0 48 48" fill="none" xmlns="http://www.w3.org/2000/svg">
<rect width="48" height="48" fill="#141CD9"/>
<path d="M35.5253 15.0853C35.352 13.1093 35.768 12.6933 38.0907 12.6933V12H30.984L24.224 30.3733L17.8107 12H10.08V12.6933C12.3333 12.6933 12.888 13.2133 12.7147 15.12L11.224 31.9333C11.016 34.4293 10.5307 34.88 8 34.88V35.5733H16.424V34.88C12.6453 34.88 11.9173 34.3947 12.1253 31.9333L13.616 15.1893L20.9307 35.5733H23.288L30.776 15.1893L32.1627 32.6267C32.336 34.5333 31.7467 34.88 28.384 34.88V35.5733H40.2053V34.88C37.536 34.88 37.224 34.6373 37.0507 32.6267L35.5253 15.0853Z" fill="white"/>
</svg>
