<svg width="40" height="40" viewBox="0 0 40 40" fill="none" xmlns="http://www.w3.org/2000/svg">
<rect width="40" height="40" rx="20" fill="#8E55EA" fill-opacity="0.15"/>
<path d="M27.968 12.1988C27.8297 12.2097 27.6394 12.2406 27.3014 12.2969L18.5014 13.7636C18.249 13.8056 18.1145 13.8287 18.0186 13.8523L18.0089 13.8547L18.0081 13.8647C18.0007 13.9631 18 14.0996 18 14.3554V26L18 26.0036C17.998 28.2111 16.2079 30 14 30C11.7909 30 10 28.2091 10 26C10 23.7909 11.7909 22 14 22C14.7286 22 15.4117 22.1948 16 22.5351L16 14.327C16 14.1109 15.9999 13.8971 16.0138 13.7139C16.0292 13.5101 16.0654 13.2733 16.1752 13.0285C16.3297 12.6843 16.5783 12.3907 16.8925 12.1818C17.1159 12.0332 17.3436 11.9586 17.542 11.9099C17.7204 11.8661 17.9314 11.831 18.1445 11.7955L27.0074 10.3183C27.2977 10.2699 27.5753 10.2236 27.8106 10.205C28.0647 10.185 28.3747 10.1861 28.6964 10.3056C29.1347 10.4685 29.5022 10.7797 29.7349 11.1854C29.9056 11.4831 29.9577 11.7887 29.9797 12.0425C30.0001 12.2777 30 12.559 30 12.8533L30 24C30 24.0557 29.9955 24.1102 29.9867 24.1634C29.901 26.2968 28.1444 28 25.99 28C23.7809 28 21.99 26.2091 21.99 24C21.99 21.7909 23.7809 20 25.99 20C26.7227 20 27.4094 20.197 28 20.5409V12.8888C28 12.5461 27.9991 12.3532 27.9872 12.2151L27.9855 12.1976L27.968 12.1988Z" fill="#8E55EA"/>
</svg>
