<svg width="40" height="40" viewBox="0 0 40 40" fill="none" xmlns="http://www.w3.org/2000/svg">
<rect width="40" height="40" rx="20" fill="#0084FF" fill-opacity="0.15"/>
<path fill-rule="evenodd" clip-rule="evenodd" d="M22.7259 11.2449C22.3743 11.0691 22.0517 10.9077 21.7779 10.8008C21.4959 10.6906 21.1239 10.578 20.7077 10.6395C20.1635 10.7199 19.6764 11.0209 19.3611 11.4717C19.1199 11.8165 19.0543 12.1996 19.0267 12.5011C18.9999 12.7938 19 13.1545 19 13.5477L19 22.5351C18.4117 22.1948 17.7286 22 17 22C14.7909 22 13 23.7909 13 26C13 28.2091 14.7909 30 17 30C19.2081 30 20.9983 28.2109 21 26.0032L21 26V13.5888C21 13.1407 21.001 12.8735 21.0184 12.6833L21.0215 12.6527L21.0502 12.6637C21.2281 12.7332 21.4675 12.8518 21.8683 13.0522L25.5528 14.8944C26.0468 15.1414 26.6474 14.9412 26.8944 14.4472C27.1414 13.9532 26.9412 13.3525 26.4472 13.1056L22.7259 11.2449Z" fill="#3E90F0"/>
</svg>
