<svg width="48" height="48" viewBox="0 0 48 48" fill="none" xmlns="http://www.w3.org/2000/svg">
<rect width="48" height="48" fill="#040404"/>
<g clip-path="url(#clip0_811_87716)">
<path d="M37.3674 21.1701C37.7173 20.1193 37.8386 19.0058 37.7234 17.9043C37.6081 16.8028 37.2589 15.7386 36.6991 14.783C35.8692 13.3376 34.6015 12.1932 33.079 11.5149C31.5565 10.8367 29.8579 10.6597 28.2283 11.0095C27.4933 10.1811 26.5897 9.51927 25.5782 9.06833C24.5667 8.61739 23.4705 8.38772 22.3631 8.39469C20.6969 8.39066 19.0725 8.91586 17.7241 9.89455C16.3757 10.8732 15.3729 12.2549 14.8603 13.8402C13.7749 14.0624 12.7495 14.5139 11.8527 15.1645C10.9559 15.815 10.2084 16.6497 9.66032 17.6125C8.8238 19.054 8.46672 20.7238 8.64059 22.3813C8.81445 24.0388 9.51028 25.5982 10.6277 26.8347C10.2778 27.8855 10.1564 28.9989 10.2717 30.1004C10.387 31.202 10.7362 32.2661 11.296 33.2218C12.126 34.6671 13.3936 35.8115 14.9161 36.4897C16.4386 37.1679 18.1372 37.345 19.7668 36.9953C20.5018 37.8237 21.4054 38.4855 22.4169 38.9364C23.4284 39.3874 24.5246 39.617 25.632 39.6101C27.299 39.6144 28.9242 39.089 30.2732 38.1097C31.6221 37.1304 32.6251 35.7478 33.1372 34.1615C34.2227 33.9393 35.2481 33.4878 36.1449 32.8372C37.0417 32.1866 37.7891 31.352 38.3372 30.3891C39.1727 28.9478 39.529 27.2784 39.3547 25.6216C39.1804 23.9647 38.4845 22.406 37.3674 21.1701ZM25.6345 37.5695C24.2661 37.5713 22.9406 37.0921 21.8899 36.2156C21.9372 36.1898 22.0203 36.1442 22.0745 36.111L28.2899 32.5208C28.4459 32.4321 28.5754 32.3034 28.6652 32.148C28.7549 31.9925 28.8017 31.816 28.8006 31.6365V22.8741L31.4277 24.391C31.4415 24.3979 31.4534 24.408 31.4623 24.4206C31.4712 24.4331 31.4768 24.4477 31.4788 24.463V31.7196C31.4768 33.2695 30.8606 34.7555 29.7652 35.852C28.6698 36.9484 27.1844 37.566 25.6345 37.5695ZM13.0659 32.2015C12.3804 31.0172 12.1334 29.6295 12.368 28.2815C12.4142 28.3091 12.4948 28.3584 12.5526 28.3916L18.768 31.9818C18.9229 32.0723 19.0991 32.12 19.2785 32.12C19.4579 32.12 19.634 32.0723 19.7889 31.9818L27.3772 27.6002V30.6341C27.3781 30.6496 27.3751 30.665 27.3686 30.6791C27.362 30.6932 27.3521 30.7054 27.3397 30.7147L21.0566 34.3424C19.7127 35.1164 18.1166 35.3257 16.6185 34.9243C15.1205 34.5229 13.8428 33.5437 13.0659 32.2015ZM11.4308 18.6328C12.1132 17.447 13.1911 16.539 14.4757 16.0679C14.4757 16.1215 14.4726 16.2162 14.4726 16.2821V23.4624C14.4715 23.6417 14.5182 23.8181 14.6079 23.9734C14.6975 24.1287 14.8269 24.2573 14.9828 24.3461L22.5711 28.727L19.944 30.2439C19.931 30.2525 19.9162 30.2576 19.9007 30.259C19.8852 30.2604 19.8697 30.258 19.8554 30.2519L13.5717 26.6211C12.2301 25.8442 11.2514 24.567 10.85 23.0695C10.4487 21.5721 10.6575 19.9766 11.4308 18.6328ZM33.0148 23.6556L25.4265 19.2741L28.0535 17.7578C28.0665 17.7492 28.0814 17.744 28.0969 17.7426C28.1123 17.7412 28.1279 17.7437 28.1422 17.7498L34.4259 21.3775C35.3885 21.9335 36.1729 22.7524 36.687 23.7381C37.2011 24.7238 37.4238 25.8355 37.329 26.9432C37.2341 28.0509 36.8257 29.1086 36.1514 29.9926C35.4772 30.8765 34.5651 31.5501 33.5219 31.9344C33.5219 31.8802 33.5219 31.7855 33.5219 31.7196V24.5393C33.5233 24.3603 33.4771 24.1841 33.388 24.0288C33.2989 23.8735 33.1701 23.7447 33.0148 23.6556ZM35.6295 19.7202C35.5834 19.6919 35.5028 19.6433 35.4449 19.6101L29.2295 16.0199C29.0746 15.9295 28.8985 15.8819 28.7191 15.8819C28.5397 15.8819 28.3636 15.9295 28.2086 16.0199L20.6203 20.4015V17.3676C20.6194 17.3521 20.6224 17.3367 20.629 17.3226C20.6355 17.3085 20.6454 17.2963 20.6579 17.287L26.9409 13.6624C27.9035 13.1073 29.0042 12.8379 30.1143 12.8855C31.2244 12.9332 32.298 13.296 33.2094 13.9315C34.1209 14.567 34.8325 15.4489 35.2611 16.474C35.6897 17.4991 35.8175 18.6251 35.6295 19.7202ZM19.192 25.1276L16.5643 23.6107C16.5505 23.6038 16.5387 23.5937 16.5297 23.5811C16.5208 23.5685 16.5152 23.554 16.5132 23.5387V16.2821C16.514 15.1706 16.8313 14.0824 17.428 13.1447C18.0247 12.2071 18.8762 11.4588 19.8827 10.9875C20.8893 10.5162 22.0093 10.3413 23.1116 10.4834C24.2139 10.6255 25.2529 11.0786 26.1071 11.7898C26.0597 11.8156 25.9772 11.8611 25.9225 11.8944L19.7071 15.4845C19.5511 15.5732 19.4216 15.7018 19.3318 15.8571C19.2421 16.0124 19.1953 16.1888 19.1963 16.3682L19.192 25.1276ZM20.6191 22.0507L23.9988 20.0987L27.3785 22.0495V25.9522L23.9988 27.903L20.6191 25.9522V22.0507Z" fill="white"/>
</g>
<defs>
<clipPath id="clip0_811_87716">
<rect width="32" height="32" fill="white" transform="translate(8 8)"/>
</clipPath>
</defs>
</svg>
