<svg width="33" height="32" viewBox="0 0 33 32" fill="none" xmlns="http://www.w3.org/2000/svg">
<g opacity="0.53" filter="url(#filter0_f_811_87530)">
<path d="M30.7633 16.5116C30.7633 18.3673 30.3837 20.2048 29.6462 21.9192C28.9088 23.6336 27.8278 25.1914 26.4652 26.5036C25.1025 27.8157 23.4848 28.8566 21.7044 29.5667C19.924 30.2769 18.0158 30.6424 16.0887 30.6424C14.1616 30.6424 12.2533 30.2769 10.4729 29.5667C8.69253 28.8566 7.07482 27.8157 5.71215 26.5036C4.34949 25.1914 3.26857 23.6336 2.5311 21.9192C1.79363 20.2048 1.41406 18.3673 1.41406 16.5116C1.41406 12.7639 2.96013 9.16969 5.71215 6.51966C8.46418 3.86963 12.1967 2.38086 16.0887 2.38086C18.0158 2.38086 19.924 2.74636 21.7044 3.4565C23.4848 4.16664 25.1025 5.2075 26.4652 6.51966C27.8278 7.83182 28.9088 9.38959 29.6462 11.104C30.3837 12.8184 30.7633 14.6559 30.7633 16.5116Z" fill="black"/>
</g>
<path d="M31.322 15.2626C31.322 17.263 30.928 19.2439 30.1625 21.0921C29.3969 22.9403 28.2748 24.6196 26.8603 26.0341C25.4458 27.4486 23.7665 28.5707 21.9183 29.3363C20.0701 30.1018 18.0892 30.4958 16.0887 30.4958C12.0486 30.4958 8.17398 28.8909 5.31719 26.0341C2.4604 23.1773 0.855468 19.3027 0.855469 15.2626C0.855468 11.2224 2.4604 7.34781 5.31719 4.49102C8.17398 1.63423 12.0486 0.0292979 16.0887 0.0292969C18.0892 0.0292967 20.0701 0.423318 21.9183 1.18886C23.7665 1.9544 25.4458 3.07648 26.8603 4.49102C28.2748 5.90556 29.3969 7.58485 30.1625 9.43304C30.928 11.2812 31.322 13.2621 31.322 15.2626Z" fill="url(#paint0_linear_811_87530)" stroke="#CDCDCD" stroke-width="0.0452314" strokeLinecap="round" strokeLinejoin="round"/>
<path d="M30.1261 15.2603C30.1261 18.9838 28.6469 22.5548 26.014 25.1878C23.3811 27.8207 19.81 29.2999 16.0865 29.2999C12.363 29.2999 8.79192 27.8207 6.15898 25.1878C3.52604 22.5548 2.04688 18.9838 2.04688 15.2603C2.04688 11.5368 3.52604 7.96574 6.15898 5.3328C8.79192 2.69987 12.363 1.2207 16.0865 1.2207C19.81 1.2207 23.3811 2.69987 26.014 5.3328C28.6469 7.96574 30.1261 11.5368 30.1261 15.2603Z" fill="url(#paint1_radial_811_87530)"/>
<path d="M16.0876 1.95312C15.9742 1.95312 15.8829 2.04441 15.8829 2.15782V4.51886C15.8829 4.63226 15.9742 4.72355 16.0876 4.72355C16.201 4.72355 16.2923 4.63226 16.2923 4.51886V2.15782C16.2923 2.04441 16.201 1.95312 16.0876 1.95312ZM14.7485 2.03776C14.7349 2.0363 14.7209 2.0363 14.7068 2.03793C14.594 2.0497 14.5127 2.14997 14.5245 2.26276L14.6277 3.25052C14.6395 3.36331 14.7397 3.44464 14.8525 3.43286C14.9653 3.42109 15.0466 3.32082 15.0349 3.20803L14.9318 2.22028C14.9215 2.12158 14.8434 2.04698 14.7485 2.03776ZM17.436 2.03873C17.3411 2.04787 17.263 2.12248 17.2526 2.22116L17.1487 3.20883C17.1369 3.32161 17.2182 3.42198 17.331 3.43384C17.4438 3.4457 17.544 3.36445 17.5559 3.25167L17.6598 2.26392C17.6717 2.15113 17.5903 2.05085 17.4775 2.039C17.4634 2.03754 17.4496 2.03753 17.436 2.03873ZM13.3729 2.23724C13.3593 2.23734 13.3454 2.2387 13.3315 2.24161C13.2206 2.2651 13.1502 2.37335 13.1737 2.48429L13.6627 4.79409C13.6861 4.90504 13.7944 4.97545 13.9053 4.95196C14.0163 4.92848 14.0867 4.82032 14.0632 4.70937L13.5742 2.39948C13.5537 2.30241 13.4682 2.23649 13.3729 2.23724ZM18.8115 2.23918C18.7162 2.23821 18.6307 2.30432 18.6101 2.40138L18.1194 4.71091C18.0959 4.82184 18.1662 4.93011 18.2771 4.95368C18.3881 4.97726 18.4963 4.9069 18.5199 4.79598L19.0106 2.48644C19.0341 2.37552 18.9638 2.26724 18.8529 2.24368C18.839 2.24076 18.8251 2.23918 18.8115 2.23918ZM12.0601 2.60739C12.0336 2.60496 12.0062 2.60788 11.9793 2.61682C11.8714 2.65189 11.8128 2.76685 11.8478 2.8747L12.1547 3.81925C12.1898 3.92711 12.3048 3.98575 12.4127 3.95071C12.5205 3.91565 12.5791 3.8006 12.544 3.69275L12.2372 2.74819C12.2109 2.6673 12.1396 2.61415 12.0601 2.60739ZM20.1169 2.60788C20.0374 2.61464 19.9661 2.66781 19.9398 2.74869L19.6327 3.69316C19.5977 3.80101 19.6563 3.91607 19.7641 3.95112C19.872 3.98618 19.987 3.92759 20.0221 3.81976L20.3292 2.8752C20.3642 2.76735 20.3056 2.6523 20.1978 2.61724C20.1708 2.60849 20.1434 2.60564 20.1169 2.60788ZM10.7619 3.08245C10.7353 3.08294 10.7084 3.08877 10.6825 3.1003C10.5789 3.14635 10.5325 3.26682 10.5786 3.37045L11.5376 5.52795C11.5836 5.63157 11.7041 5.6779 11.8077 5.63184C11.9113 5.58579 11.9578 5.46532 11.9117 5.36169L10.9526 3.20419C10.9181 3.12647 10.8417 3.0809 10.7619 3.08245ZM21.4297 3.0897C21.35 3.08824 21.2735 3.13351 21.2388 3.21117L20.2769 5.36735C20.2307 5.47091 20.2769 5.59147 20.3805 5.63767C20.4841 5.68387 20.6046 5.6377 20.6508 5.53414L21.6127 3.37796C21.6589 3.2744 21.6127 3.15383 21.5092 3.10763C21.4833 3.09611 21.4563 3.09028 21.4297 3.0897ZM9.55692 3.72002C9.51763 3.7171 9.47714 3.72586 9.44031 3.74716C9.3421 3.80386 9.30869 3.92855 9.36539 4.02676L9.86197 4.88686C9.91867 4.98508 10.0434 5.01848 10.1416 4.96178C10.2398 4.90508 10.2732 4.78039 10.2165 4.68217L9.71991 3.82208C9.68446 3.76069 9.62242 3.7246 9.55692 3.72002ZM22.6182 3.72002C22.5527 3.7244 22.4907 3.76068 22.4553 3.82206L21.9586 4.68216C21.9019 4.78037 21.9354 4.90506 22.0336 4.96176C22.1319 5.01847 22.2565 4.98506 22.3132 4.88685L22.8098 4.02675C22.8665 3.92854 22.8331 3.80384 22.7349 3.74714C22.6981 3.72589 22.6575 3.7173 22.6182 3.72002ZM8.38682 4.44982C8.34743 4.45128 8.30799 4.46392 8.27357 4.48887C8.18178 4.55546 8.16148 4.68295 8.2281 4.77474L9.61446 6.68586C9.68105 6.77765 9.80863 6.79794 9.90042 6.73137C9.99221 6.66479 10.0125 6.53729 9.94589 6.4455L8.55944 4.53438C8.51782 4.47701 8.45244 4.44758 8.38682 4.44982ZM23.803 4.46022C23.7374 4.45779 23.672 4.48721 23.6303 4.5445L22.2412 6.45376C22.1745 6.54546 22.1947 6.67301 22.2864 6.73973C22.3781 6.80644 22.5056 6.78636 22.5723 6.6947L23.9613 4.78544C24.028 4.69373 24.0078 4.56619 23.9161 4.49947C23.8818 4.47448 23.8423 4.46163 23.803 4.46022ZM7.34093 5.32695C7.28868 5.32403 7.23536 5.34149 7.19322 5.37943C7.10894 5.4553 7.10216 5.5842 7.17805 5.66849L7.84256 6.40667C7.91843 6.49096 8.04734 6.49774 8.13162 6.42185C8.21591 6.34598 8.22268 6.21699 8.14679 6.1327L7.48237 5.3946C7.44444 5.35244 7.39319 5.3297 7.34093 5.32695ZM24.8357 5.32841C24.7834 5.33133 24.7322 5.35394 24.6943 5.39608L24.0297 6.13409C23.9539 6.21837 23.9606 6.34736 24.0449 6.42324C24.1291 6.49912 24.258 6.49232 24.3339 6.40807L24.9985 5.67006C25.0744 5.58578 25.0676 5.45679 24.9834 5.38091C24.9412 5.34298 24.8879 5.32567 24.8357 5.32841ZM6.33851 6.28984C6.28626 6.29276 6.2351 6.31537 6.19716 6.35751C6.12129 6.44179 6.12807 6.5707 6.21233 6.64657L7.96708 8.22622C8.05137 8.30209 8.18027 8.2953 8.25614 8.21104C8.33201 8.12677 8.32532 7.99786 8.24101 7.92199L6.48618 6.34234C6.44402 6.30441 6.39077 6.28709 6.33851 6.28984ZM25.843 6.29674C25.7907 6.29383 25.7373 6.31123 25.6952 6.34913L23.9394 7.92755C23.855 8.00336 23.8481 8.13227 23.9239 8.2166C23.9997 8.30094 24.1287 8.30779 24.213 8.23197L25.9689 6.65356C26.0533 6.57774 26.0601 6.44884 25.9843 6.3645C25.9464 6.32234 25.8952 6.29952 25.843 6.29674ZM5.50491 7.36172C5.43929 7.35929 5.37386 7.38885 5.3322 7.44617C5.26555 7.53792 5.28576 7.66539 5.37752 7.73205L6.181 8.31582C6.27274 8.38248 6.40022 8.36236 6.46687 8.27059C6.53353 8.17885 6.51336 8.05128 6.42165 7.98463L5.61817 7.40086C5.58379 7.37586 5.54428 7.36313 5.50491 7.36172ZM26.6758 7.36916C26.6364 7.37062 26.5969 7.38321 26.5625 7.40821L25.7587 7.99145C25.6669 8.05804 25.6466 8.18562 25.7132 8.27741C25.7798 8.3692 25.9073 8.38941 25.9991 8.32283L26.803 7.7396C26.8948 7.673 26.915 7.54551 26.8484 7.45372C26.8068 7.39635 26.7414 7.36691 26.6758 7.36916ZM4.7259 8.50507C4.6604 8.50944 4.59844 8.54572 4.563 8.6071C4.5063 8.70531 4.53971 8.83 4.63791 8.88671L6.6826 10.0672C6.78081 10.1239 6.90551 10.0905 6.96221 9.99231C7.01891 9.8941 6.9855 9.76941 6.88729 9.71271L4.8426 8.53218C4.80579 8.51093 4.7652 8.50234 4.7259 8.50507ZM27.4492 8.50507C27.4099 8.50215 27.3693 8.5109 27.3325 8.5322L25.2878 9.71273C25.1896 9.76943 25.1562 9.89412 25.2129 9.99233C25.2696 10.0905 25.3943 10.1239 25.4925 10.0672L27.5373 8.88673C27.6355 8.83002 27.6689 8.70533 27.6122 8.60712C27.5768 8.54574 27.5147 8.50964 27.4492 8.50507ZM4.13692 9.72375C4.05716 9.72181 3.98066 9.76747 3.94601 9.84513C3.89982 9.9487 3.94598 10.0693 4.04955 10.1155L4.95665 10.5201C5.06022 10.5663 5.18079 10.5201 5.22698 10.4165C5.27318 10.313 5.22692 10.1924 5.12336 10.1462L4.21634 9.7416C4.19047 9.73002 4.16351 9.72429 4.13692 9.72375ZM28.0422 9.73216C28.0156 9.73265 27.9886 9.73849 27.9627 9.75001L27.0554 10.1539C26.9518 10.2001 26.9055 10.3205 26.9516 10.4242C26.9977 10.5278 27.1183 10.5741 27.2219 10.528L28.1292 10.124C28.2328 10.0779 28.279 9.95732 28.2329 9.85372C28.1983 9.77602 28.1219 9.73058 28.0422 9.73216ZM3.61199 10.9975C3.53249 11.0042 3.46121 11.0573 3.43486 11.1381C3.39975 11.246 3.45821 11.361 3.56605 11.3962L5.81093 12.1277C5.91875 12.1628 6.03384 12.1043 6.06898 11.9965C6.10409 11.8886 6.04563 11.7736 5.93779 11.7384L3.69292 11.0069C3.66598 10.9981 3.63849 10.9953 3.61199 10.9975ZM28.5661 11.0062C28.5396 11.0038 28.5123 11.0067 28.4853 11.0157L26.2399 11.7456C26.1321 11.7806 26.0735 11.8957 26.1085 12.0035C26.1436 12.1114 26.2586 12.17 26.3665 12.1349L28.6118 11.405C28.7197 11.3699 28.7783 11.2549 28.7433 11.1471C28.717 11.0662 28.6456 11.013 28.5661 11.0062ZM3.28495 12.3346C3.18959 12.3336 3.10407 12.3998 3.08344 12.4969C3.05985 12.6078 3.13022 12.716 3.24113 12.7396L4.21263 12.9461C4.32356 12.9697 4.43182 12.8993 4.4554 12.7884C4.47898 12.6775 4.40862 12.5692 4.29771 12.5456L3.32629 12.3392C3.31243 12.3362 3.29856 12.3346 3.28495 12.3346ZM28.8906 12.3365C28.877 12.3366 28.8632 12.3385 28.8494 12.3409L27.8779 12.5473C27.767 12.5708 27.6966 12.679 27.7202 12.7899C27.7438 12.9009 27.852 12.9713 27.963 12.9477L28.9344 12.7414C29.0453 12.7178 29.1157 12.6095 29.0921 12.4986C29.0715 12.4015 28.986 12.3357 28.8906 12.3365ZM3.03741 13.6795C2.94248 13.6886 2.86435 13.7631 2.85393 13.8617C2.84201 13.9745 2.92314 14.0749 3.03591 14.0868L5.38388 14.3351C5.49665 14.347 5.59706 14.2658 5.60898 14.153C5.62089 14.0402 5.53968 13.9398 5.4269 13.9279L3.07893 13.6797C3.06483 13.6782 3.05098 13.6782 3.03741 13.6795ZM29.1399 13.6972C29.1264 13.6957 29.1124 13.6957 29.0983 13.6973L26.7501 13.9424C26.6373 13.9542 26.556 14.0544 26.5677 14.1672C26.5795 14.28 26.6798 14.3613 26.7926 14.3496L29.1408 14.1045C29.2536 14.0927 29.3349 13.9925 29.3231 13.8797C29.3128 13.781 29.2348 13.7064 29.1399 13.6972ZM2.99766 15.0562C2.88425 15.0562 2.79297 15.1475 2.79297 15.2609C2.79297 15.3743 2.88425 15.4656 2.99766 15.4656H3.99081C4.1042 15.4656 4.19558 15.3743 4.19558 15.2609C4.19558 15.1475 4.1042 15.0562 3.99081 15.0562H2.99766ZM28.1843 15.0562C28.0709 15.0562 27.9796 15.1475 27.9796 15.2609C27.9796 15.3743 28.0709 15.4656 28.1843 15.4656H29.1775C29.2909 15.4656 29.3822 15.3743 29.3822 15.2609C29.3822 15.1475 29.2909 15.0562 29.1775 15.0562H28.1843ZM5.42416 16.1721C5.4106 16.1706 5.39674 16.1706 5.38264 16.1722L3.03431 16.4173C2.92152 16.4291 2.84021 16.5293 2.85197 16.6421C2.86374 16.7549 2.96401 16.8362 3.0768 16.8245L5.42513 16.5794C5.53792 16.5676 5.61922 16.4674 5.60746 16.3546C5.59715 16.2559 5.51908 16.1813 5.42416 16.1721ZM26.7497 16.1866C26.6548 16.1957 26.5767 16.2701 26.5662 16.3688C26.5543 16.4816 26.6355 16.582 26.7482 16.5939L29.0962 16.8422C29.209 16.8541 29.3094 16.7729 29.3213 16.6601C29.3332 16.5473 29.252 16.4469 29.1392 16.435L26.7913 16.1867C26.7772 16.1853 26.7633 16.1853 26.7497 16.1866ZM4.25362 17.5694C4.24001 17.5695 4.22615 17.5708 4.21229 17.5738L3.24078 17.7801C3.12985 17.8037 3.05954 17.912 3.08309 18.0229C3.10668 18.1338 3.21493 18.2041 3.32586 18.1806L4.29737 17.9743C4.40829 17.9507 4.47861 17.8425 4.45505 17.7315C4.43443 17.6345 4.34898 17.5686 4.25362 17.5694ZM27.9212 17.5713C27.8259 17.5704 27.7404 17.6365 27.7198 17.7335C27.6962 17.8444 27.7665 17.9527 27.8774 17.9763L28.8489 18.1828C28.9598 18.2063 29.0681 18.1361 29.0917 18.0251C29.1153 17.9142 29.0449 17.8059 28.934 17.7823L27.9626 17.5758C27.9487 17.5729 27.9348 17.5713 27.9212 17.5713ZM5.88955 18.3775C5.86305 18.3751 5.83568 18.378 5.80872 18.387L3.56332 19.1169C3.45547 19.1519 3.39689 19.267 3.43195 19.3748C3.46701 19.4827 3.58206 19.5412 3.68991 19.5062L5.93523 18.7763C6.04308 18.7412 6.10174 18.6262 6.06668 18.5183C6.04037 18.4375 5.96905 18.3843 5.88955 18.3775ZM26.2834 18.3848C26.2039 18.3915 26.1326 18.4446 26.1062 18.5254C26.0711 18.6333 26.1296 18.7483 26.2374 18.7835L28.4823 19.515C28.5901 19.5501 28.7052 19.4916 28.7403 19.3838C28.7755 19.2759 28.717 19.1609 28.6092 19.1257L26.3643 18.3942C26.3373 18.3854 26.3099 18.3826 26.2834 18.3848ZM5.03272 19.9762C5.00612 19.9767 4.9792 19.9824 4.95329 19.9939L4.04593 20.3979C3.94233 20.444 3.89609 20.5646 3.94221 20.6682C3.98836 20.7718 4.10886 20.818 4.21245 20.7719L5.11983 20.368C5.22342 20.3219 5.26966 20.2013 5.22354 20.0977C5.18896 20.02 5.11248 19.9746 5.03272 19.9762ZM27.1391 19.984C27.0594 19.982 26.9829 20.0277 26.9482 20.1054C26.902 20.2089 26.9482 20.3295 27.0518 20.3757L27.9588 20.7803C28.0623 20.8265 28.1829 20.7803 28.2291 20.6768C28.2753 20.5732 28.2291 20.4526 28.1256 20.4064L27.2186 20.0018C27.1927 19.9902 27.1657 19.9845 27.1391 19.984ZM6.7993 20.4275C6.76001 20.4246 6.71944 20.4334 6.6826 20.4547L4.63791 21.6352C4.53971 21.6919 4.5063 21.8166 4.563 21.9148C4.6197 22.013 4.7444 22.0464 4.8426 21.9897L6.88729 20.8093C6.9855 20.7526 7.01891 20.6278 6.96221 20.5296C6.92676 20.4682 6.8648 20.4321 6.7993 20.4275ZM25.3759 20.4275C25.3104 20.4319 25.2484 20.4682 25.2129 20.5296C25.1562 20.6278 25.1896 20.7526 25.2878 20.8093L27.3325 21.9897C27.4307 22.0464 27.5555 22.013 27.6122 21.9148C27.6689 21.8166 27.6355 21.6919 27.5373 21.6352L25.4925 20.4547C25.4557 20.4334 25.4152 20.4248 25.3759 20.4275ZM6.2893 22.1599C6.24991 22.1614 6.21047 22.1741 6.17604 22.1991L5.37222 22.7823C5.28043 22.8489 5.26013 22.9764 5.3267 23.0682C5.3933 23.16 5.52079 23.1803 5.61258 23.1137L6.41649 22.5304C6.50829 22.4638 6.52859 22.3363 6.46201 22.2446C6.42038 22.1872 6.35492 22.1577 6.2893 22.1599ZM25.881 22.1668C25.8153 22.1644 25.7499 22.194 25.7083 22.2513C25.6416 22.343 25.6618 22.4706 25.7536 22.5373L26.5571 23.121C26.6488 23.1877 26.7763 23.1675 26.8429 23.0757C26.9096 22.984 26.8894 22.8565 26.7977 22.7898L25.9942 22.2061C25.9599 22.1811 25.9203 22.1683 25.881 22.1668ZM8.10986 22.2375C8.05762 22.2346 8.00433 22.252 7.96216 22.2899L6.20626 23.8683C6.12193 23.9441 6.11508 24.073 6.1909 24.1574C6.2667 24.2417 6.39561 24.2486 6.47995 24.1727L8.23585 22.5943C8.32018 22.5185 8.32703 22.3896 8.25122 22.3053C8.21333 22.2631 8.16212 22.2403 8.10986 22.2375ZM24.0604 22.2432C24.0081 22.2461 23.9569 22.2687 23.919 22.3108C23.8431 22.3951 23.8499 22.524 23.9341 22.5999L25.6889 24.1795C25.7732 24.2554 25.9022 24.2486 25.978 24.1644C26.0539 24.0801 26.0471 23.9512 25.9629 23.8753L24.208 22.2957C24.1659 22.2577 24.1126 22.2404 24.0604 22.2432ZM9.77566 23.7427C9.71004 23.7403 9.64455 23.7696 9.60286 23.827L8.21394 25.7362C8.14722 25.8279 8.1673 25.9555 8.25897 26.0222C8.35067 26.0889 8.47822 26.0688 8.54493 25.9771L9.93385 24.0678C10.0006 23.9761 9.98049 23.8486 9.88882 23.7819C9.85444 23.7569 9.81503 23.744 9.77566 23.7427ZM22.3881 23.7512C22.3487 23.7527 22.3092 23.7653 22.2748 23.7903C22.183 23.8569 22.1627 23.9844 22.2293 24.0762L23.6157 25.9873C23.6822 26.0791 23.8097 26.0994 23.9015 26.0328C23.9933 25.9662 24.0136 25.8387 23.9471 25.7469L22.5607 23.8358C22.5191 23.7784 22.4537 23.749 22.3881 23.7512ZM7.98265 24.0461C7.9304 24.049 7.87916 24.0717 7.84122 24.1138L7.1767 24.8518C7.10082 24.9361 7.10754 25.0651 7.19183 25.141C7.2761 25.2168 7.405 25.21 7.48088 25.1257L8.14548 24.3877C8.22137 24.3035 8.21456 24.1745 8.13031 24.0986C8.08815 24.0607 8.03491 24.0434 7.98265 24.0461ZM24.1912 24.0471C24.139 24.0442 24.0858 24.0616 24.0436 24.0996C23.9593 24.1754 23.9526 24.3043 24.0284 24.3886L24.6928 25.1268C24.7687 25.2111 24.8976 25.2179 24.9819 25.142C25.0662 25.0661 25.0729 24.9371 24.9971 24.8528L24.3326 24.1148C24.2947 24.0726 24.2435 24.0499 24.1912 24.0471ZM11.7152 24.8659C11.6355 24.8639 11.5591 24.9096 11.5244 24.9872L10.5624 27.1434C10.5162 27.247 10.5624 27.3675 10.666 27.4137C10.7695 27.4599 10.8901 27.4138 10.9363 27.3102L11.8983 25.154C11.9445 25.0505 11.8983 24.9299 11.7947 24.8837C11.7689 24.8721 11.7418 24.8664 11.7152 24.8659ZM20.4469 24.8718C20.4203 24.8723 20.3933 24.878 20.3674 24.8895C20.2638 24.9356 20.2175 25.0561 20.2635 25.1597L21.2225 27.3172C21.2685 27.4208 21.3891 27.4671 21.4927 27.4211C21.5963 27.375 21.6427 27.2546 21.5966 27.1509L20.6376 24.9934C20.6031 24.9158 20.5267 24.8703 20.4469 24.8718ZM10.0249 25.5325C9.95938 25.5369 9.8974 25.5732 9.86197 25.6345L9.36539 26.4946C9.30869 26.5928 9.3421 26.7175 9.44031 26.7742C9.53852 26.8309 9.66321 26.7975 9.71991 26.6993L10.2165 25.8392C10.2732 25.741 10.2398 25.6163 10.1416 25.5596C10.1048 25.5384 10.0642 25.5298 10.0249 25.5325ZM22.1502 25.5325C22.111 25.5296 22.0705 25.5384 22.0336 25.5596C21.9354 25.6163 21.902 25.741 21.9587 25.8392L22.4553 26.6993C22.512 26.7976 22.6367 26.831 22.7349 26.7743C22.8331 26.7176 22.8665 26.5929 22.8098 26.4947L22.3132 25.6346C22.2778 25.5732 22.2157 25.5371 22.1502 25.5325ZM13.8567 25.5633C13.7614 25.5624 13.6759 25.6285 13.6553 25.7255L13.1647 28.0351C13.1411 28.146 13.2114 28.2543 13.3223 28.2778C13.4333 28.3014 13.5416 28.2311 13.5651 28.1201L14.0558 25.8106C14.0794 25.6997 14.009 25.5914 13.8981 25.5678C13.8842 25.5649 13.8703 25.5633 13.8567 25.5633ZM18.3111 25.5648C18.2975 25.5649 18.2838 25.5663 18.2699 25.5692C18.159 25.5927 18.0885 25.7008 18.112 25.8118L18.601 28.1216C18.6245 28.2326 18.7327 28.303 18.8437 28.2795C18.9546 28.256 19.025 28.1478 19.0016 28.0368L18.5125 25.7271C18.4919 25.63 18.4065 25.5641 18.3111 25.5648ZM16.0876 25.7978C15.9742 25.7978 15.8829 25.889 15.8829 26.0024V28.3635C15.8829 28.4769 15.9742 28.5682 16.0876 28.5682C16.201 28.5682 16.2923 28.4769 16.2923 28.3635V26.0024C16.2923 25.889 16.201 25.7978 16.0876 25.7978ZM12.3302 26.5607C12.2507 26.5674 12.1793 26.6206 12.153 26.7015L11.8461 27.6461C11.811 27.7539 11.8696 27.869 11.9774 27.904C12.0853 27.9391 12.2003 27.8804 12.2354 27.7726L12.5424 26.8281C12.5774 26.7202 12.5188 26.6052 12.411 26.5701C12.3841 26.5614 12.3567 26.5584 12.3302 26.5607ZM19.8434 26.5612C19.8169 26.5587 19.7895 26.5617 19.7625 26.5706C19.6547 26.6056 19.596 26.7207 19.6311 26.8285L19.938 27.7731C19.973 27.8809 20.0881 27.9395 20.1959 27.9044C20.3038 27.8694 20.3624 27.7544 20.3274 27.6466L20.0204 26.702C19.9941 26.6211 19.9229 26.5679 19.8434 26.5612ZM14.8027 27.0872C14.7078 27.0964 14.6296 27.1709 14.6192 27.2696L14.5154 28.2573C14.5035 28.3701 14.5848 28.4704 14.6976 28.4823C14.8104 28.4941 14.9107 28.4129 14.9226 28.3001L15.0264 27.3124C15.0383 27.1996 14.957 27.0993 14.8442 27.0874C14.8301 27.086 14.8163 27.086 14.8027 27.0872ZM17.3642 27.0882C17.3506 27.0868 17.3367 27.0868 17.3226 27.0884C17.2098 27.1002 17.1285 27.2004 17.1402 27.3132L17.2434 28.3011C17.2552 28.4138 17.3555 28.4951 17.4682 28.4833C17.581 28.4715 17.6624 28.3713 17.6506 28.2585L17.5475 27.2707C17.5372 27.172 17.4591 27.0974 17.3642 27.0882Z" fill="#F4F2F3"/>
<g opacity="0.409" filter="url(#filter1_f_811_87530)">
<path d="M25.6821 7.07617L14.4831 13.5828L7.40234 24.73L17.761 17.0575L25.6821 7.07617Z" fill="black"/>
</g>
<path d="M17.6944 16.9436L14.4844 13.582L25.8715 5.92188L17.6944 16.9436Z" fill="#FF5150"/>
<path d="M17.6918 16.9417L14.4818 13.5801L6.30469 24.6018L17.6918 16.9417Z" fill="#F1F1F1"/>
<path opacity="0.243" d="M6.30469 24.6037L17.6918 16.9436L25.8689 5.92188L6.30469 24.6037Z" fill="black"/>
<defs>
<filter id="filter0_f_811_87530" x="0.262053" y="1.22885" width="31.6517" height="30.5657" filterUnits="userSpaceOnUse" color-interpolation-filters="sRGB">
<feFlood flood-opacity="0" result="BackgroundImageFix"/>
<feBlend mode="normal" in="SourceGraphic" in2="BackgroundImageFix" result="shape"/>
<feGaussianBlur stdDeviation="0.576005" result="effect1_foregroundBlur_811_87530"/>
</filter>
<filter id="filter1_f_811_87530" x="7.07491" y="6.74874" width="18.9361" height="18.3092" filterUnits="userSpaceOnUse" color-interpolation-filters="sRGB">
<feFlood flood-opacity="0" result="BackgroundImageFix"/>
<feBlend mode="normal" in="SourceGraphic" in2="BackgroundImageFix" result="shape"/>
<feGaussianBlur stdDeviation="0.163716" result="effect1_foregroundBlur_811_87530"/>
</filter>
<linearGradient id="paint0_linear_811_87530" x1="16.0882" y1="30.4955" x2="16.0882" y2="0.029217" gradientUnits="userSpaceOnUse">
<stop stop-color="#BDBDBD"/>
<stop offset="1" stop-color="white"/>
</linearGradient>
<radialGradient id="paint1_radial_811_87530" cx="0" cy="0" r="1" gradientUnits="userSpaceOnUse" gradientTransform="translate(16.1498 13.2131) scale(15.2332 15.2332)">
<stop stop-color="#06C2E7"/>
<stop offset="0.25" stop-color="#0DB8EC"/>
<stop offset="0.5" stop-color="#12AEF1"/>
<stop offset="0.75" stop-color="#1F86F9"/>
<stop offset="1" stop-color="#107DDD"/>
</radialGradient>
</defs>
</svg>
