<svg width="48" height="48" viewBox="0 0 48 48" fill="none" xmlns="http://www.w3.org/2000/svg">
<g clip-path="url(#clip0_811_87739)">
<rect width="48" height="48" fill="#1B1C30"/>
<g clip-path="url(#clip1_811_87739)">
<path d="M15.3551 28.658C15.3551 30.4974 13.8685 31.984 12.0291 31.984C10.1897 31.984 8.70312 30.4974 8.70312 28.658C8.70312 26.8186 10.1897 25.332 12.0291 25.332H15.3551V28.658ZM17.0181 28.658C17.0181 26.8186 18.5047 25.332 20.3441 25.332C22.1834 25.332 23.6701 26.8186 23.6701 28.658V36.973C23.6701 38.8123 22.1834 40.299 20.3441 40.299C18.5047 40.299 17.0181 38.8123 17.0181 36.973V28.658Z" fill="#E01E5A"/>
<path d="M20.3419 15.3043C18.5026 15.3043 17.0159 13.8177 17.0159 11.9783C17.0159 10.139 18.5026 8.65234 20.3419 8.65234C22.1813 8.65234 23.6679 10.139 23.6679 11.9783V15.3043H20.3419ZM20.3419 16.9925C22.1813 16.9925 23.6679 18.4791 23.6679 20.3185C23.6679 22.1579 22.1813 23.6445 20.3419 23.6445H12.0018C10.1624 23.6445 8.67578 22.1579 8.67578 20.3185C8.67578 18.4791 10.1624 16.9925 12.0018 16.9925H20.3419Z" fill="#36C5F0"/>
<path d="M33.6704 20.3185C33.6704 18.4791 35.157 16.9925 36.9964 16.9925C38.8358 16.9925 40.3224 18.4791 40.3224 20.3185C40.3224 22.1579 38.8358 23.6445 36.9964 23.6445H33.6704V20.3185ZM32.0074 20.3185C32.0074 22.1579 30.5208 23.6445 28.6815 23.6445C26.8421 23.6445 25.3555 22.1579 25.3555 20.3185V11.9783C25.3555 10.139 26.8421 8.65234 28.6815 8.65234C30.5208 8.65234 32.0074 10.139 32.0074 11.9783V20.3185Z" fill="#2EB67D"/>
<path d="M28.6815 33.647C30.5208 33.647 32.0074 35.1336 32.0074 36.973C32.0074 38.8123 30.5208 40.299 28.6815 40.299C26.8421 40.299 25.3555 38.8123 25.3555 36.973V33.647H28.6815ZM28.6815 31.984C26.8421 31.984 25.3555 30.4974 25.3555 28.658C25.3555 26.8186 26.8421 25.332 28.6815 25.332H37.0216C38.861 25.332 40.3476 26.8186 40.3476 28.658C40.3476 30.4974 38.861 31.984 37.0216 31.984H28.6815Z" fill="#ECB22E"/>
</g>
</g>
<defs>
<clipPath id="clip0_811_87739">
<rect width="48" height="48" fill="white"/>
</clipPath>
<clipPath id="clip1_811_87739">
<rect width="32" height="32" fill="white" transform="translate(8.5 8.5)"/>
</clipPath>
</defs>
</svg>
