<svg width="40" height="40" viewBox="0 0 40 40" fill="none" xmlns="http://www.w3.org/2000/svg">
<g clip-path="url(#clip0_584_323111)">
<path d="M20.5 4.5C11.9438 4.5 5 11.4438 5 20C5 28.5562 11.9438 35.5 20.5 35.5C29.0562 35.5 36 28.5562 36 20C36 11.4438 29.0562 4.5 20.5 4.5Z" fill="#1ED760"/>
<path d="M30.4121 18.4441C30.0871 18.4441 29.8871 18.3629 29.6059 18.2004C25.1559 15.5441 17.1996 14.9066 12.0496 16.3441C11.8246 16.4066 11.5434 16.5066 11.2434 16.5066C10.4184 16.5066 9.78711 15.8629 9.78711 15.0316C9.78711 14.1816 10.3121 13.7004 10.8746 13.5379C13.0746 12.8941 15.5371 12.5879 18.2184 12.5879C22.7809 12.5879 27.5621 13.5379 31.0559 15.5754C31.5434 15.8566 31.8621 16.2441 31.8621 16.9879C31.8621 17.8379 31.1746 18.4441 30.4121 18.4441ZM28.4746 23.2066C28.1496 23.2066 27.9309 23.0629 27.7059 22.9441C23.7996 20.6316 17.9746 19.7004 12.7934 21.1066C12.4934 21.1879 12.3309 21.2691 12.0496 21.2691C11.3809 21.2691 10.8371 20.7254 10.8371 20.0566C10.8371 19.3879 11.1621 18.9441 11.8059 18.7629C13.5434 18.2754 15.3184 17.9129 17.9184 17.9129C21.9746 17.9129 25.8934 18.9191 28.9809 20.7566C29.4871 21.0566 29.6871 21.4441 29.6871 21.9879C29.6809 22.6629 29.1559 23.2066 28.4746 23.2066ZM26.7934 27.3066C26.5309 27.3066 26.3684 27.2254 26.1246 27.0816C22.2246 24.7316 17.6871 24.6316 13.2059 25.5504C12.9621 25.6129 12.6434 25.7129 12.4621 25.7129C11.8559 25.7129 11.4746 25.2316 11.4746 24.7254C11.4746 24.0816 11.8559 23.7754 12.3246 23.6754C17.4434 22.5441 22.6746 22.6441 27.1371 25.3129C27.5184 25.5566 27.7434 25.7754 27.7434 26.3441C27.7434 26.9129 27.2996 27.3066 26.7934 27.3066Z" fill="black"/>
</g>
<defs>
<clipPath id="clip0_584_323111">
<rect width="31" height="32" fill="white" transform="translate(5 4)"/>
</clipPath>
</defs>
</svg>
