<svg width="40" height="40" viewBox="0 0 40 40" fill="none" xmlns="http://www.w3.org/2000/svg">
<rect width="40" height="40" rx="20" fill="url(#paint0_linear_584_323045)"/>
<path d="M32 12.6C31.1 13 30.2 13.3 29.2 13.4C30.2 12.8 31 11.8 31.4 10.7C30.4 11.3 29.4 11.7 28.3 11.9C27.4 10.9 26.1 10.3 24.7 10.3C22 10.3 19.8 12.5 19.8 15.2C19.8 15.6 19.8 16 19.9 16.3C15.7 16.1 12.1 14.1 9.7 11.1C9.2 11.9 9 12.7 9 13.6C9 15.3 9.9 16.8 11.2 17.7C10.4 17.7 9.6 17.5 9 17.1C9 17.1 9 17.1 9 17.2C9 19.6 10.7 21.6 12.9 22C12.5 22.1 12.1 22.2 11.6 22.2C11.3 22.2 11 22.2 10.7 22.1C11.3 24.1 13.1 25.5 15.3 25.5C13.6 26.8 11.5 27.6 9.2 27.6C8.8 27.6 8.4 27.6 8 27.5C10.2 28.9 12.8 29.7 15.5 29.7C24.6 29.7 29.5 22.2 29.5 15.7C29.5 15.5 29.5 15.3 29.5 15.1C30.5 14.4 31.3 13.5 32 12.6Z" fill="#FEFEFE"/>
<defs>
<linearGradient id="paint0_linear_584_323045" x1="20" y1="0" x2="20" y2="40" gradientUnits="userSpaceOnUse">
<stop stop-color="#42B4FF"/>
<stop offset="1" stop-color="#1C9CF0"/>
</linearGradient>
</defs>
</svg>
