<svg width="48" height="48" viewBox="0 0 48 48" fill="none" xmlns="http://www.w3.org/2000/svg">
<g clip-path="url(#clip0_811_87692)">
<rect width="48" height="48" fill="#232627"/>
<path fill-rule="evenodd" clip-rule="evenodd" d="M38.9678 21.472C42.4643 21.472 45.2988 18.6446 45.2988 15.1569C45.2988 11.6692 42.4643 8.8418 38.9678 8.8418C35.4712 8.8418 32.6367 11.6692 32.6367 15.1569C32.6367 18.6446 35.4712 21.472 38.9678 21.472Z" fill="#0084FF"/>
<path fill-rule="evenodd" clip-rule="evenodd" d="M39.389 24.8029C39.111 24.8279 38.8294 24.8407 38.5449 24.8407C33.4166 24.8407 29.2593 20.6938 29.2593 15.5785C29.2593 13.8881 29.7133 12.3034 30.5063 10.9392L26.8567 8.95877C25.1967 8.05801 23.1923 8.05801 21.5323 8.95877L11.9092 14.1808C10.1161 15.1537 9 17.027 9 19.0632V28.9461C9 30.9824 10.1161 32.8556 11.9092 33.8286L21.5323 39.0506C23.1923 39.9513 25.1967 39.9513 26.8567 39.0506L36.4798 33.8286C38.2729 32.8556 39.389 30.9824 39.389 28.9461V24.8029Z" fill="#FEFEFE"/>
</g>
<defs>
<clipPath id="clip0_811_87692">
<rect width="48" height="48" fill="white"/>
</clipPath>
</defs>
</svg>
